<?xml version="1.0" encoding="UTF-8"?><svg id="Calque_1" xmlns="http://www.w3.org/2000/svg" viewBox="0 0 57.33 78.06"><defs><style>.cls-1{fill:#e3ebe4;}</style></defs><g id="Page-1"><g id="Logos"><g id="Logo"><g id="tree"><path id="Path" class="cls-1" d="M23.05,36.93c1.05,.78,2.62,3.62,4.19,3.62,1.05-.26-1.31-8.53-6.02-9.04-6.02-.52-11-2.58-14.14-8.27-1.57-2.84,1.83,1.55,2.1,1.81,6.02,6.72,12.59-.21,15.99,4.96,0-.26-.02-7.8-2.37-10.13-3.4-3.36-8.64-3.36-9.17-3.88-1.83-1.29,7.59,.78,10.21,3.36,4.19,3.88,4.04,9.24,4.83,6.14,1.31-5.94,4.6-9.5,2.24-13.38-2.36-4.65,1.31-.52,1.83,1.55,1.05,5.43-4.71,17.57-2.36,22.22,1.57-1.29,3.4-5.17,9.17-5.43,3.93,0,8.38,1.03,9.95-2.58,.26-1.29,0-1.81,0-2.84,.26-3.1,5.5,7.49-8.64,7.49-2.62,0-5.41,1.88-6.2,4.47-1.83,4.39-.5,5.17-.5,7.5-.5,7.5,3.55-4.73,2.24,.18-1.05,3.1-1.24,7.46-1.24,10.82,.52,8.01-4.62,7.64,3.5,11,2.1,1.03,7.43,6.34,4.81,5.05-12.83-7.23-6.81,1.81-7.59,2.33-.52,.52-2.1-2.33-2.36-2.58-.26-.26-2.08-9.37-2.86-6.79-.79,2.07-1.59,3.17-2.64,4.98-1.83,2.58-1.13,5.18-.86,8.02,0,2.07-1.23-2.34-1.49-3.11-.26-.78-.52-3.36-1.83-2.33-2.36,1.03-3.94,6.49-3.67,4.94,.26-5.17,5.77-7.78,6.55-11.4-2.36,.78-8.9,4.39-11,6.46-1.57,1.55-3.14,5.17-2.36,1.81,.79-3.1,6.21-5.37,2.8-5.37-2.1,.26-5.94,1.24-7.78,2.01-2.1,.78-1.31-.26,1.57-1.55,3.67-1.55,4.68,.19,10.71-4.46,4.98-4.13,6.5-12.3,6.5-18.5,0-3.88-2.02-4.16-3.85-7.01-.52-.78-3.67-4.13-.26-2.07Z"/><path id="Path-2" class="cls-1" d="M16,40.53c1.59-2.89,4.76-3.31,6.67-1.24-1.59,2.89-4.76,3.72-6.67,1.24Z"/><path id="Path-3" class="cls-1" d="M20,44.91c.29-2.11,2.65-3.27,5-2.81-.29,1.87-2.65,3.27-5,2.81Z"/><path id="Path-4" class="cls-1" d="M15,33.48c2.81-1.35,5.96,.34,6.67,3.05-2.81,1.35-5.96-.34-6.67-3.05Z"/><path id="Path-5" class="cls-1" d="M0,24.95c1.9-2.85,5.08-2.45,6.67,.41-1.9,2.45-5.08,2.04-6.67-.41Z"/><path id="Path-6" class="cls-1" d="M1.67,17.13c2.65-.73,5,1.83,5,4.75-2.35,.73-4.71-1.83-5-4.75Z"/><path id="Path-7" class="cls-1" d="M9.01,17c2.22,1.71,2.22,4.57,0,6-2.58-1.43-2.58-4.29,0-6h0Z"/><path id="Path-8" class="cls-1" d="M1.67,29.87c1.82-3.25,5.45-3.66,8-1.63-1.82,2.85-5.45,3.66-8,1.63Z"/><path id="Path-9" class="cls-1" d="M13.14,21c1.17,1.9,.29,4.05-1.76,5-1.47-1.9-.59-4.05,1.76-5h0Z"/><path id="Path-10" class="cls-1" d="M34.18,0c-3.29,1.52-4.7,5.33-2.35,8,3.76-1.52,4.7-5.33,2.35-8Z"/><path id="Path-11" class="cls-1" d="M26.26,1c-1.51,2.8,0,5.95,3.02,7,1.51-2.8,0-5.95-3.02-7Z"/><path id="Path-12" class="cls-1" d="M22,7.9c1,2.94,4.33,4.04,6.67,2.2-1-2.94-4.33-4.04-6.67-2.2h0Z"/><path id="Path-13" class="cls-1" d="M37.4,5c-3.79,.95-5.68,5.21-4.26,9,3.79-.95,6.16-5.21,4.26-9Z"/><path id="Path-14" class="cls-1" d="M24,13.92c1.59,2.98,5.08,2.56,6.67,0-1.9-2.56-5.08-2.56-6.67,0Z"/><path id="Path-15" class="cls-1" d="M11.77,7c-2.25,3.05-.9,6.48,2.7,8,2.25-3.05,.45-6.48-2.7-8Z"/><path id="Path-16" class="cls-1" d="M5.67,10.17c.35,3.92,3.18,6.54,6,5.66-.35-3.92-3.18-6.54-6-5.66h0Z"/><path id="Path-17" class="cls-1" d="M10.67,19.27c1.67,1.47,4.05,.59,5-1.47-1.9-1.47-4.05-.88-5,1.47Z"/><path id="Path-18" class="cls-1" d="M17.02,8c-2.16,2.55-1.73,6.18,1.3,8,2.16-2.55,1.73-6.18-1.3-8Z"/><path id="Path-19" class="cls-1" d="M56.62,18c-3.38,.35-6.34,2.82-5.91,6,3.8,0,6.34-2.82,5.91-6h0Z"/><path id="Path-20" class="cls-1" d="M49.98,15c-3.01,1.67-3.01,5-.43,7,3.01-1.67,3.01-5,.43-7Z"/><path id="Path-21" class="cls-1" d="M43.67,19.03c0,2.96,2.32,5.27,4.97,4.94,.33-2.96-2.32-5.27-4.97-4.94h0Z"/><path id="Path-22" class="cls-1" d="M56.67,23.13c-2.65-.73-5,1.83-5,4.75,2.35,.73,4.71-1.83,5-4.75Z"/><path id="Path-23" class="cls-1" d="M42,24.35c.67,2.81,4,4.56,6.67,3.16-1-2.81-4-4.21-6.67-3.16Z"/><path id="Path-24" class="cls-1" d="M39.67,12.04c0,3.58-2.78,5.96-5.97,5.96-.4-3.58,2.78-6.36,5.97-5.96Z"/><path id="Path-25" class="cls-1" d="M39.33,19.07c-1.27,2.74-4.44,3.92-6.67,1.96,1.27-3.13,4.44-3.92,6.67-1.96Z"/><path id="Path-26" class="cls-1" d="M57.33,29.6c-1.9-2.43-5.08-2.02-6.67,.81,1.9,2.43,5.08,2.02,6.67-.81Z"/><path id="Path-27" class="cls-1" d="M56.33,35.46c-.7-2.77-3.86-4.16-6.67-3.12,.7,3.12,3.86,4.5,6.67,3.12Z"/><path id="Path-28" class="cls-1" d="M5,33.72c.7-2.91,3.86-4.2,6.67-3.55-.7,2.91-3.86,4.52-6.67,3.55Z"/><path id="Path-29" class="cls-1" d="M24.67,17.03c0,2.96,2.19,5.27,5,4.94,0-2.96-2.5-5.27-5-4.94Z"/><path id="Path-30" class="cls-1" d="M17.67,23.03c0,2.65-2.19,4.97-5,4.97,0-2.98,2.19-5.3,5-4.97h0Z"/><path id="Path-31" class="cls-1" d="M14.67,20.9c2.22,.47,4.72-.7,5-2.81-2.22-.47-4.72,.94-5,2.81Z"/><path id="Path-32" class="cls-1" d="M20.89,11c-1.91,1.91-1.53,5.41,.77,7,2.3-2.23,1.91-5.41-.77-7Z"/><path id="Path-33" class="cls-1" d="M37.33,23.97c-1.27,3.13-4.44,3.92-6.67,1.96,1.27-2.74,4.44-3.92,6.67-1.96Z"/><path id="Path-34" class="cls-1" d="M40.77,23c-2.48,1.91-2.83,5.09-.71,7,2.48-1.91,2.83-5.09,.71-7Z"/><path id="Path-35" class="cls-1" d="M45.67,37.86c0-3.27-2.65-5.45-5-4.72,.29,3.27,2.65,5.45,5,4.72Z"/><path id="Path-36" class="cls-1" d="M51.67,38.95c0-3.8-3-6.33-6-5.91,0,3.8,3,6.33,6,5.91Z"/><path id="Path-37" class="cls-1" d="M36.95,35c-2.97,2.18-2.97,5.82-.42,8,2.55-1.82,2.97-5.82,.42-8Z"/><path id="Path-38" class="cls-1" d="M44.67,45.6c-2.55-2.43-6.18-2.02-8,.81,2.55,2.43,6.18,2.02,8-.81Z"/><path id="Path-39" class="cls-1" d="M42.54,39c-2.92,0-5.48,2.5-4.75,5,2.92,0,5.48-2.5,4.75-5Z"/><path id="Path-40" class="cls-1" d="M40.67,52.96c0-3.17-2.5-5.28-5-4.92,0,3.17,2.5,5.28,5,4.92Z"/><path id="Path-41" class="cls-1" d="M11.56,37c2.53-1.14,3.61-4,1.81-6-2.53,1.14-3.61,4-1.81,6Z"/></g></g></g></g></svg>