<?xml version="1.0" encoding="UTF-8"?><svg id="Calque_1" xmlns="http://www.w3.org/2000/svg" viewBox="0 0 496.34 530.78"><defs><style>.cls-1{fill:#e3ebe4;}.cls-2{fill:#2e3b31;}.cls-3{fill:#487e52;}.cls-4{isolation:isolate;}</style></defs><path class="cls-1" d="M190.44,273.14s-.22,3.81-.5,4.33-1.19,3.06-1.17,3.36,.78,1.11,1.11,1.44-.03,1.33-.58,1.14-1.25-1.36-1.25-1.36l-.67,.22,.08,.92,.89,1.46h0l-.39,1.54s2.64,4.92,3.56,5.94c.92,1.03,2.36,1.69,3.17,1.69l-1.31,.19s1.69,1.33,2.28,1.69,5.67,3.89,6.83,4.19,2.03,.53,2.03,.53h0l-2.56,1.03-1.78-.11s2.81,1.58,4.14,2.61c1.33,1.03,1.86,1.83,2.17,2.33s3.06,3.69,3.31,4.5,.31,2.14,.31,2.14c0,0,1.08,2.92,1.44,3.78s1.06,2.78,1.06,2.78l-.72,.58,.03,.72,5.06,6.03,.14,3s2.11,1.69,2.31,2.47,.67,2.36,1.08,3.06,.03,2.11-.53,2.83-2.22,2.61-2.67,3.25-.33,1.19,.42,1.61,1.06,.5,1.06,.5c0,0-.42,2.83,.64,4.47,1.06,1.64,4.19,6.03,4.19,6.03,0,0,.22,3.69,.14,4.5-.08,.81-.69,5.37-.69,5.37,0,0-4.39,3.89-5,4.25s-.17,1.28-.72,1.67-2.39,2.67-3.22,5.78c-.83,3.11-1.56,6.17-1.72,7.11s-.33,7-.33,7l-2.17,.94s-.06,5.39-.06,6.44,0,10.33,.17,10.94,2.28,1.56,2.78,1.94,3.17,3.72,3.72,4.11,2,3.72,3.17,4.44,2.39,7.89,2.94,9.94,.61,5.11,3.39,7.06c2.78,1.94,4,3.78,4,7.83h-1.61s.94,1.39,.78,1.89-.44,1.5,.11,1.94,1.11,1.94,.5,2.83-.5,4.06-.44,4.61,2.11,2.28,2.11,2.28c0,0,.11,4.61,.11,5.33s1.39,2,.94,2.78-.06,1.72,.56,2.33,.72,2.06,.67,3.39,1.17,2.22,1.06,3.5,.78,2.61,1.61,3.5,3.11,4.67,3.83,5.78,2,1.67,3.89,1.44c0,0-.33,1.94,0,2.61s1.89,2.39,2.06,3.22,2.28,8.33,3.78,10.44,4.17,6.22,4.33,7.83-.06,4.11-2.06,5.89v2.39l.89-.06s-.06,1.28,.11,1.83,2.28,2.5,2.22,3.17,.22,1.56,.39,2.44,.22,1.78,1.28,1.33,1.39,.33,1.39,.33l-.11,1.11,2.33,.06,2.39,2.94,1.44,.08c.75,.42,2.25-.17,3.25-.92s2.5,.17,3.58-.58l1.08-.75s3,.67,4.58,0,4.33-2.5,4.83-2.58,2.33,.42,2.92,.67,3.75-.19,4.5-.68,1.33-.68,2.17,0,4.25,.93,5,.93,.33-2.33,1.58-1.92,3,.92,3.58,.67,1.25-1.25,1.25-1.25c0,0,2.5,.17,3.5,0s3,.42,3.75,0,4.42-3.58,6.5-4.42,10.17-8.42,11.17-9.33,4.25-2.42,5.17-2.92,5.17-7.75,6-9.58,.75-4.17,2.25-5.17,7.42-4.42,8.5-5.58,2.5-4.17,2.58-5.67,1.75-4.75,2.17-6.25c.42-1.5,1.75-4.17,2-5s-2.5-1.42-3.17-2.25,5.08-4.42,6.5-4.83,12-3.17,14.5-7.67c0,0-1-1.67,0-4.17,1-2.5,2.08-5.5,1.75-6.67s-.42-4.42-1-4.58-1.08,.75-1.08,.75c0,0,0-2.08,.5-3.42,.5-1.33,.25-2.5,.08-4.08s-1.58-4.42-2.58-4.92-1.33-2.5-.5-3.25,.83-3.75,.83-3.75c0,0,1.75,1.25,2.92,.42s6.54-5,6.87-5.46,.29-3.37,.29-3.37l1.5,1.75s.71-1.67,1.62-2.29,2.92-2.33,2.92-2.33v-1.21s1-.42,1.21-.87,.29-1.46,.29-1.46c0,0,1.21,.21,2.29-.37s3.5-1.58,3.67-1.83-.17-1.42,.71-1,1.08,.96,1.79,.87,5.21-1,5.79-1.42,1.42-2.67,2-2.75,1.5,.17,2.12-.62,4.96-5.96,5.17-6.42-.17-2.04,.46-2.08,1.17-.46,1.17-1.29v-.96l.92-.29s-.29-1.33,.33-1.79,1.21-1.33,1.21-1.33c0,0-.42-1.75-.46-2.25s-.75-.92-.92-1.37-.08-1.79-.08-1.79c0,0,.42-1.08,.33-1.92s-.46-1.46-.21-2.12,.71-1.42,.87-1.83-.04-2.58-.04-2.58l.5-.67s0-2.75-.25-4.21c-.25-1.46-.67-3.58-.5-4.58s-.54-2.21-.08-2.87,1.79-3.33,1.96-3.79-1.46-2.17-1.46-2.17c0,0,.62-1.08-.04-1.42s-5.58-2.37-5.58-2.37c0,0,.5-1.33,.5-1.96s-.5-2.75-.5-2.75l.54-.75s-1.12-4.12-1.87-5.12c-.75-1-.71-1.92,.04-2.58s.5-2.96,.33-3.5-1.04,.04-1.21-1.21,.08-1.83,.83-2.33,2.37-1.21,2-2-1.92-.62-2.54-1.37-1.04-1.5-1.67-2-1.46-1.75-1.79-2.79c-.33-1.04,.92-3.62,.75-4.37s0-1.42,.54-2c.54-.58,1.37-1.5,1.37-1.5l.25-1.79s.79-1,.92-1.67,.96-.54,1.46-1.17,2.71-4.42,2.96-5.46,.58-2.33,1.46-2.96,1.42-4.87,1.62-5.33,.79-.96,.79-.96l2.75-.29s.42-.79,.46-1.12,1.21-2.33,1.75-2.79,2.83-.42,2.83-.42c0,0,4.76-7.01,6.99-9.35,2.22-2.33,9.72-10.33,10.44-11.28s2.61-2.89,2.61-2.89l1.11-.28s2.28-2.6,2.94-3.13,2.28-.87,2.28-.87l2.22-2.11h.78s1.67-1.72,2.11-2.28,.89-.39,1.94-1.11,4.61-5.17,4.78-5.67,0-1.28,1.22-2,4-3.33,4.94-4.33,.67-1.61,1.44-2.5,2.33-.5,2.78-1.72,.94-2.83,.94-3.56,.22-1.94,1.28-2.61,2.33-1.28,2.61-2.33,2.22-4,2.22-4l.28-5.5s3.72-6.67,4.39-7.33,.5-3,.5-3c0,0,2.67-4.33,3.5-5.22s.83-3.78,.83-3.78l.94-1.44s.06-5.89,.67-6.61,1.61-1.06,2.56-1.17,.83-1.06,.83-1.06h-2.17s.5-.89,.72-1.44,.22-3.72,.22-3.72l-.89-1.17-.44-4.61-1.5-.44s-2.61,2.5-3.56,2.89-3.5,1.56-3.5,1.56l-2.44-.11-.11,1.61s-3.78,1.33-4.56,1.17-1.72-1.17-3-.33-4.28,1.72-4.94,1.67-1.78-1-1.78-1c0,0-.83,.17-1.06,.28s-3.78,2.72-3.78,2.72l-1.61-.22s-1.33,1.44-1.89,1.28-2.22-1.11-3.22-.72-6,2.61-6,2.61l-5.39,.11-4-4.17-3.5-2.67s-1.61-.33-2.22-.33-1.5,1.11-1.5,1.11c0,0-1.17-1.61-.61-2.44s2.78-1.28,4-1.78,1.06-1.78,1.06-1.78c0,0-1.94-2.39-3-3.83-1.06-1.44-3.83-3.83-3.83-3.83h-1.61l-.33-2.44-3.44-2.56h-1.94s-3.22-4.5-4.22-5.33-2.28-.94-3.06-1.61-3.06-.78-3.94-1.22-1.56-2.28-2.11-3.11-1.17-.39-1.39,0,.89,2.56,.5,2.56-1.61-2.44-2.39-3.39-2.06-4.89-2.94-6.5-1.89-8.5-3.39-10.11c-1.5-1.61-2.67-3.5-3.39-3.89s-1.56-1.56-2.33-1.56-1.22-.06-2.06-.33-2.44-3.17-3.11-5-.39-3.28-1.22-4.44-1.22-1.67-1.22-1.67v-4.39l-1.94-3.11h2.11l-.33-1.11-3.61-4.89-.06-1.22-1.06-1.39s-1.61-.22-3.22-1.83l-2.44-.67-3.67-6.61-.44-1.33-.67-1.11h1.56c.72,0,1.72-.22,.78-1.39-.94-1.17-4.33-4.89-6.22-7.61-1.89-2.72-3.06-4.56-3.06-4.56l-.11-1.67-5.06-5.94s.33-3.17-2-6.11c-2.33-2.94-8.06-8.67-8.06-8.67,0,0-.17-2-.5-2.83s-1.89-3-1.89-3c0,0-.28-3.5,.39-3.44s1.83,1.22,1.89,2.17,1,3.39,2.39,4.44,1.72,1.5,1.89,3.61,.83,2.06,1.94,2.61,1.61,1.67,2.67,2.72,2.94,2.06,3.17,1.17,.11-7.17,.39-8.44c.28-1.28,1.94-4.33,1.94-4.33l-5.67-14.78s-2.94,1.39-3.78,1.5-.67,1.61-1.78,1.5-1-.94-1.83-.89-2.83,1.11-2.83,1.11l-1.83-1.17s-1.5,1.56-1.83,1.56-1.61-1.67-1.61-1.67l1.17-.33s-.28-1.06-.83-1.61-2.06,.5-2.06,.5l-3.17-.11-1.28,.5-2.61-1.05-2.56,1.77-2.33,.17-4,4.78-3.83-1.94-4.28-.33s-1.17-2.28-2.78-2.39-2.44,0-2.44,0l-.67-.89-8.17-.56s-2.06,1.94-3.33,1.67-.83-2.72-1.94-3.33-4.33,.06-5.39,0-2.56-1.94-2.56-1.94h-4.28s.11-1.5-.94-2.33-3.5-1.56-3.5-1.56c0,0-3.17-.06-3.94,0s-2.78,.33-4.06,.61-4.17,1.06-5.56,2.11-1.61,1.33-2.56,1.72-1.11,4.28-.61,4.83,2.11,3.17,2.17,3.72-.56,1.56-1.11,1.78-2.61,3.44-3.61,4.06-2.22,.44-3.11,.11-7.61-4.83-9.61-5.83-7.28-1.56-8.39-1.61-3-.17-3-.17l-2.83-3.89v-3.33s-2-.39-3.5-.33-3.06-1.44-3.06-1.44l-2.67-.11-2.56-1.28s-1-.72-1.56-.72-2.33,1.17-2.33,1.17l-4.5,.06s-1.33-2.5-5.61-2.94c0,0-1.11-1.44-1.5-2.28s-.83-1.61-.83-1.61h-1.67s-.22,1.44-.78,1.33-1.28-.61-.78-1.56-1.06-.78-1.06-.78c0,0-1.28-.5-1.94-2.17s.83-3.33,.83-3.33h1.33l4.78-4.94s.5-2.89-.33-3.22-2.28-1.11-2.94-2.44-.33-2.61-.33-2.61l3.56-2.89,.22-2.83h-1.44s-1.28,1.94-1.56,1.94-2.17-1.94-2.17-1.94l-.17-1.17s-1.89-.22-3.22-.89-2.67,.89-2.67,.89h-2.39s-.94,2-1.39,2.06-4.22-.44-4.22-.44l-1.17,.83-3-2.11-2.72,1.72-2.89-1.78s-2.39,1.44-3.72,1.72-3.39,1.56-3.39,1.56l-1.72-.06-1.61-1.56s-6.39-.61-7.5-.39-2.06,.67-3.11,.72-2.94,.94-2.94,.94h-9c-2,0-6.56,2-7.78,2.94s-2,1.83-2,1.83l-1.17-.06-.89-1.11-1.56,1.22h-3.44l-2.39,2.83-2.56,.94-6.61-.22v-2.33l-2.78,1.5c-.28-.06-7.89-.22-7.89-.22l-3.06-2.5-1.11-3.39-3.39,1s-3.89,7.56-5.94,10.39c-2.06,2.83-5.89,4.72-8.67,5.17s-4.83,1.33-7.11,3.17c-2.28,1.83-4.28,3.39-4.28,3.39,0,0,.56,2.28-.78,3.67-1.33,1.39-3.56,3.28-3.5,4.39s-1.94,3.61-1.67,4.44,1.39,2.06,1.06,3.56-3.17,5.28-4.33,6.33-1.22,3.22-2.06,3.61-2.5,1.06-5.39,1.44-2.5,3.28-5.28,3.78-6.5,.78-7.78,1.72-2.72,3.44-3.89,4.56-.67,3.06-1.56,3.61-5.5,2.72-7.33,4.33c-1.83,1.61-3.39,6.67-3.39,6.67,0,0-.28,2.17-1.22,2.67s-4.5,2.72-4.94,4.11-4.44,9.56-5.72,10.67-1.94,2.72-2.94,3.22-3.11,1.89-3.28,3.33,.06,4.83-.33,5.33-1.78,2.89-1.78,2.89c0,0,.39,.83,1.72,.39,0,0,.83,2.72,1.5,2.94s1.33,1.33,1.28,2.44,.33,4.06-.39,4.67,.06,1.83,.06,1.83l-1.33,1.39s2.44,2.44,2.22,5.78-1.67,9.67-2.89,10.89-2.11,3.5-2.17,5.94-3.33,7.83-5.33,9.56c-2,1.72-2.56,2.22-2.56,2.22,0,0,1.06,.56,1.67,1.78s2,2.44,2.06,3.33,2.22,3.17,2.06,3.61-.72,1.44-.5,2,.06,1.22-.56,1.5-1.17,1.17-1.11,1.78,.06,1.72,.06,1.72l2.61,.78-3.28,.72,3.06,2.83,.22,1.06,1.72,1.22,1.17-.39,1.17,1.5s.56,1.17,1.56,1.17,1.5,.28,1.5,.28c0,0-1,1.5-.78,2.39s.06,2.17,.67,2.17,1.11-.56,1.11-.56l.28,1.06,1.94,.22s.67,1.17,.39,2.17,2.83,4.61,4.33,5.5,1.89,1.11,1.44,1.89-.11,1.83,.83,1.94,2.44,2.83,2.44,2.83v2.61l1.06,1-.89,.89,2.56,2.39s-.28,2.06,.22,2.61,1.17,.94,1.17,.94l2.17-.39s.22,1.5-.28,2-.44,.78,0,1.17,6.5,4.17,6.5,4.17l.78,1.5s1.28,.22,1.44,.33,1.89,2.33,2.78,3.06,2.72,.33,2.72,.33c0,0,2.33,3,3,3.33s1.39,.72,1.56,1.39,5.83,4.67,5.83,4.67l1.61,.06s5.72,3.89,7,4.06,4.78,0,4.78,0c0,0,3.56-1.72,4.5-1.89s3.28-2.67,5.44-2.89,7.17-.28,7.17-.28c0,0,3.83-1.72,4.5-1.83s1.72,.11,2.17,.78,2.44,.44,2.83,.17,.67-1.5,1.44-1.44,2.11,.44,1.61,.67-.78,1.06-.33,1.28,6.39,2.83,7.72,2.83,3.72-2.11,3.72-2.11c0,0,3.56-.06,4.67-.61s3.06-1.67,3.06-1.67c0,0,2.39-.61,3.17-.94s3.17-1.72,3.17-1.72c0,0,2.61,1.06,6.44-1.67l5.11-.72,5.5-1s-.72-.83-1.5-1.11l.22-.72s2.39,.44,3.11,.44,3.22,.22,3.22,.22l1.22-.94h2.56s-2.06,.67-1,1.22,3.44,.44,3.44,.44c0,0,2.78,.78,3.67,2.17s1.83,1.89,1.83,1.89l2-.94s-.72,1.33-.39,1.89,1.39,1.83,1.39,1.83c0,0-.44,2.06-.28,2.67s2.86,3.56,3.19,4.47,3.25,1,4.42,.83,2.19-.44,2.64-.75,1-.19,1.22,.03,.89-.44,1.42-.39,1.03,.33,1.69-.14,7.11-.06,7.11-.06l-.81-1.97,2.25,.31,.67,1.72s1.03-.39,1.44-.69,1.03,.36,1.03,.36l-.14,1.19,1.58,2.47s2.72-.28,3.03-.19,.69,.83,.17,1.08-.22,1.19,.06,1.56,2.03,2.14,2,3.58c-.03,1.44-.14,3.58-.14,3.58,0,0,.67,.86,.53,1.06s-.86,.89-.86,.89l-.06,1.75-.69,.86-.47,3.14-2.28,2.61,.03,1.78,1.69-.03s1.31,4.31,1.08,4.25-1.25-1.19-1.25-1.19l-1.61,.97s1.37,1.39,2.21,1.68,2.21,.79,2.21,.79l-.42,1.46s-2.22-.12-3.94-1.71Z"/><path class="cls-2" d="M212.61,319.5l6.65-.07,1.04-1.69h23.69s1.29,7.42,1.29,7.42l3.4,6.27,1.67,.75,1.08,2.02h5.5l2.67-.77,5.4,.17v-6.79l5.31,.06,1.98-.71,1.23,.04v2.83l9.17-.06,.83,8.21-1.29,3.5,1,4.71,2.42,2.79,.29,5.92-.83,1.17,1.67,1.67,2.12-1.04,3.46,.58,1.92-1.17s3.1-.12,4.1-.35,1.33-.37,1.33-.37l1.48,4.12,4.31-.9,1.46,.9,.52,1.5,2.71,1.44s3.31,.69,5.35,.71,3.48-.48,3.48-.48v-2.19l1.08-.04s1.44,3.81,2.9,4.67,5.1,1.77,5.92,2.29,3.69,4.06,3.69,4.06l2.22,3.15,2.11-1.25,1.56,.96,1.02-.1-.48-4.56s.69-2.6,.21-3.19-.62-.71-.71-.29-.54,1.85-.54,1.85l-2.87-.96-2.02-2.29-2.92-.79-1.67-3.58,1.37-1.04,.92-3.64s1.81-4.67,1.64-6.08-1.31-3.5-1.31-3.5l.89-2.36,3.03-6.11,10.83-.58,2.53,1.31s-2.89-8.89-3.61-9.72-2.61-2.83-3.33-3.39-2.81-3.61-2.97-4.33-.11-3.44-.11-3.44l-.8-5.69,.63-3.75s-.21-2.32-.46-2.86-.96-3.29-.92-3.75-1.56-5.97-1.56-5.97l-.9-3.12,4.83-6.62,.37-6.29,2.73-7.96v-2.27l2.17-1.42,.69-1.21,1.6-.65,5.08-5.35-.54-1.85-1.85-.5-.44-1.71v-5.83l1.21-2.48-3.69,.51s-1.08-.14-1.53-.92-1.67-1.28-1.67-1.28c0,0-1.92-1.06-2.17-1.61s-.81-3.33-.81-3.33l-1.94-.5-1.03,1.19s-3.86-.33-4.69,0-1.75,.97-1.75,.97l-7.78-4.19,.22-3.11-2.94-3.47-.5-1.67s-2.53,.22-3.53-.61-1.86-2.25-1.86-2.25l.42-2.22-3.39-2.06-5.58-6.28s-3.25,.19-4.28-.28-1.42-.81-1.36-1.61,.14-2.61,.14-2.61c0,0-1.28-1-1.58-.94s-1.97,.56-2.89,.72-2,.28-2.53-1.33c-.53-1.61-.75-3.36-.5-3.81s1.08-2.19,.72-3.06-3.67-5.78-3.67-5.78h-3.56l-3.22,4.17h-2.19l-2.28,2.22-2.61,.44-2.92,3.22-7.37,.69-4.96,4.5-15.62,8.12-.67,1.67-3.33-2.37-2.12,2.79-3.29-.08s1.48-4.58,1.17-5.35-2.21-2.98-2.21-2.98c0,0-5.73-5.08-6.56-6.19-.83-1.1-2.02-5.08-2.02-5.08l2.75-1.69s1.98-.69,2.71-.42,5.31,.9,5.31,.9l-3.73-9.54s.96-3.92,.21-5.06c-.75-1.15-3.35-4.75-3.35-4.75l-1.67-5.12-1.83-1.19-5.67-2.5s.1,3.56,.71,4.67c.6,1.1,1.71,3.75,2.65,4.19s4.27,2.17,4.6,3.02,.65,2.02,.42,2.75-1.6,2.37-2.33,2.67-2.73,1.21-3.17,2.19-3.21,9.62-3.21,9.62l-3.08,.9s-1.94,5.48-2.71,6.54-2.96,4.42-2.96,4.42c0,0,.37,2.37-.69,5.44s-3.98,6.17-4.65,6.75-2.33,.21-2.54-.23-2.08-3.33-2.08-3.33l-1.77,.92s-2.9-1.29-4.08-.5-8.81,8.56-8.81,8.56l-.37,3.62s-2.31,2.69-2.33,3.04-.03,.65-.03,.65l.67,1.72s1.12-.43,1.44-.69,.85,.17,1.03,.36l-.14,1.19,1.58,2.47s2.27-.2,2.72-.21,.61,.21,.72,.56-.14,.47-.24,.54-.31,.2-.29,.61,.24,.83,.42,1.03,1.37,1.66,1.59,2.22,.34,1.06,.33,1.36-.14,3.49-.14,3.49c0,0,.62,.81,.53,1.06l-.86,.89-.06,1.75-.69,.86-.47,3.14-2.28,2.61,.03,1.78,1.69-.03,1.04,3.77,.04,.48-1.25-1.19-1.61,.97s1.13,1.27,2.01,1.59,2.41,.88,2.41,.88l-.42,1.46s-2.1-.15-3.94-1.71c0,0-.31,3.47-.32,3.54s-.43,1.36-.54,1.65-.71,1.75-.78,2.31,.36,.85,.47,.98,.76,.81,.74,1.01-.2,.89-.71,.79-1.25-1.36-1.25-1.36l-.67,.22,.08,.92,.89,1.46-.39,1.54s2.78,5.19,3.03,5.53,1.78,2.08,3.69,2.11l-1.31,.19s5.56,4.6,9.11,5.89l2.03,.53-2.56,1.03-1.78-.11s3.06,1.84,3.41,2.09,2.03,1.73,2.89,2.85,3.31,4.5,3.31,4.5l.31,2.14,2.5,6.56Z"/><path class="cls-1" d="M438.18,470.93h3.54l3.42-2.33h5.33s5.79-6.12,7.54-9.75c1.75-3.62,5.83-13.5,5.83-13.5l.46-1.62s6.79-16.96,7.46-19.96c.67-3,1.92-5.08,2.29-5.62s1.46-3.54,2.17-4.46,1.42-2.42,1.42-2.42v-4.17s2.42-2.33,2.62-4.21,.21-3.67,.21-3.67c0,0,.33-1.54,.25-1.87s.01-1.5,.01-1.5h1.53s.25,1,.96,1.5,1.25,1.04,1.25,1.04c0,0,1.25-3,1.42-3.37s.79-8.67,.67-9.04-1.33-.96-1.12-2.62c.21-1.67-.25-4.79-.25-4.79l-1.37-1.67-.37-3-1.08-.83-.29-1.62-1.37-1.12-.5-1.37s-.62,0-1,.42-1,1.29-1.54,1.33-1.21-.62-1.21-.62c0,0,.33,4.54,.04,4.92s-.75,1.04-.75,1.04l.12,2.29-2.21-.21s-.71,1.25-1.12,1.33-.75-1.62-1.62-1.62-1.54,.75-1.54,.75c0,0,.12,1.58-.04,1.96s.46,4.17,.46,4.17c0,0-1.17-.46-1.92-.04s-1.42,1.42-1.42,1.42c0,0,.96,1.17,.54,1.5s-1.17,2.33-1.17,2.33l-1.21,.08s.87-2,.46-2.25-1.12-.08-1.12-.08l-1.25,2.17-.3,3.17s-1.24-.08-1.32-.67l-.08-.58s-1.62,.12-2.83,1.08-1.75,1.62-1.79,2.29-.42,2.33-.42,2.33l-.92-2.25-3.33,.08-.46,1.08-2.33,.87-.83-.96-.54,.12-1.62,2.12-1.75,.04-1.04-.79-.67,.42,.04,2.71-3.04,5.5-.08,5.25,.5,.79-.54,1.25v3.58s1.04,6.96,1.04,6.96l-.92,4.29-3.96,5.37-.71,2-1.33,.83-3.08,3.83s-.12,3.79,0,5.42c.12,1.62,.87,3.96,1.37,4.87s-.12,4.58-.29,6.04-.21,3.54-.21,3.54l.58,.79,.25,3.33,2.25,1.54-.08,1.17,3.96,3.67Z"/><g class="cls-4"><path class="cls-3" d="M261.17,487.35s-.08,0-.12-.01c-.85-.21-2.41-.44-2.99-.19-1.13,.5-3.41-.02-4.4-.61-.27-.16-.66-.13-1.15-.1-.71,.05-1.58,.11-2.52-.39-.91-.48-.91-1.54-.92-2.47,0-1.25-.06-2.03-1.06-2.36-.32-.1-.64-.08-.97,.09-1.22,.63-2.19,2.98-2.46,3.83-.08,.26-.36,.41-.63,.33-.26-.08-.41-.36-.33-.63,.04-.14,1.11-3.47,2.95-4.42,.57-.29,1.15-.34,1.74-.15,1.74,.57,1.74,2.15,1.75,3.31,0,.86,.03,1.4,.38,1.59,.68,.36,1.35,.32,1.99,.28,.59-.04,1.2-.08,1.73,.24,.85,.5,2.76,.88,3.49,.56,.89-.39,2.65-.08,3.35,.07,2.9-2.92,2.92-2.92,3.19-2.92,.06,0,1.6,.06,2.43,.09l.82-46.38c0-.27,.23-.49,.5-.49h6.61v-26.11c0-.14,.06-.28,.16-.37,.1-.1,.24-.14,.38-.13,.1,.01,10.77,1,17.46-2.23,.14-.07,.31-.07,.45,0,.14,.07,.24,.21,.26,.37,.24,1.63,.81,3.06,1.11,3.09,.67-.16,1.41-1.4,1.72-2.15,.05-.13,.16-.23,.28-.28,.87-.33,3.28-1.31,3.91-1.85,.49-.42,1.29-.42,2.22-.43,1.07,0,2.29,0,2.98-.67,.2-.19,.52-.18,.71,.01,.19,.2,.19,.52-.01,.71-.98,.95-2.48,.95-3.67,.95-.64,0-1.36,0-1.57,.18-.78,.68-3.25,1.66-4.01,1.96-.28,.61-1.13,2.26-2.32,2.54-.29,.07-.58,.01-.84-.16-.76-.52-1.19-2.13-1.38-3.1-6.1,2.66-14.59,2.26-16.84,2.1v26.07c0,.28-.22,.5-.5,.5h-6.62l-.82,46.4c0,.13-.06,.26-.16,.35-.1,.09-.22,.14-.36,.14,0,0-2.09-.08-2.72-.1-.4,.37-1.7,1.66-2.85,2.81-.09,.1-.22,.15-.35,.15Z"/></g><g class="cls-4"><path class="cls-3" d="M354.47,475.8s-.07,0-.11-.01l-4.97-1.14c-.26-.06-.42-.3-.38-.56,.18-1.17,.38-2.48,.38-2.65,0-.17,.07-.37,.25-.86,.14-.39,.34-.92,.36-1.18,.02-.25-.27-1.07-.57-1.68-.03-.07-.05-.14-.05-.21-.07-5.48-.19-13.83-.27-14.37-.02-.14-.1-.37-.2-.69-.34-1.07-.91-2.86-.91-4.73s-.78-4.8-1.05-5.76c-2.26-.23-5.66-.55-6.07-.52-.41,.05-1.1-.19-2.17-.56-.71-.25-1.6-.55-1.93-.55-.77,0-3.27-.52-4.06-.69-.53,.35-1.97,1.3-2.72,1.55l-.52,.18c-1.49,.51-3.01,1.02-3.71,1.07-.56,.04-2.05,1.32-2.49,1.83-.34,.4-3.67,3.22-4.33,3.78-.06,.05-.12,.08-.19,.1l-1.72,.47-1.58,1.39v2.83c0,.13-.05,.26-.15,.35l-4.78,4.77s-.08,.07-.12,.09l-2.24,1.17c-.07,.29-.23,.82-.53,1.57-.49,1.23-2.46,3.42-4.16,3.91-1.21,.35-3.08,.17-5.06-.01-.75-.07-1.52-.14-2.28-.19-2.37-.15-6.84-.63-7.94-.75l-4.38,4.71s-.1,.09-.17,.12l-1.98,.87v.79c0,.14-.06,.27-.15,.36-.37,.36-1.41,1.39-1.7,1.85-.54,.84-2.13,1.26-3.35,.88-.77-.24-2.47-.07-3.05,.02-.16,.03-.33-.04-.45-.16-.26-.29-1.58-1.77-1.82-2.44-.25-.69-.23-1.89,.17-2.46,.09-.19,.21-1.72-.96-5.51-1.04-3.37-3.03-4.72-3.05-4.73-.23-.15-.29-.46-.14-.69s.46-.29,.69-.15c.09,.06,2.31,1.53,3.46,5.27,.78,2.54,1.41,5.56,.82,6.38-.15,.21-.24,1.02-.05,1.54,.12,.33,.87,1.25,1.45,1.92,.66-.08,2.29-.24,3.23,.05,.88,.28,1.96-.08,2.21-.46,.34-.54,1.31-1.5,1.7-1.89v-.9c0-.2,.12-.38,.3-.46l2.18-.96,4.49-4.81c.11-.12,.26-.18,.42-.16,.05,0,5.46,.61,8.14,.78,.77,.05,1.55,.12,2.31,.19,1.88,.18,3.66,.34,4.69,.05,1.36-.39,3.09-2.28,3.51-3.32,.42-1.04,.53-1.62,.53-1.63,.03-.15,.12-.28,.26-.35l2.38-1.25,4.58-4.57v-2.85c0-.14,.06-.28,.17-.38l1.83-1.61c.06-.05,.12-.09,.2-.11l1.73-.47c1.87-1.58,3.94-3.36,4.14-3.59,.22-.26,2.06-2.1,3.18-2.17,.63-.04,2.54-.7,3.45-1.02l.53-.18c.63-.21,2.13-1.19,2.65-1.55,.11-.08,.26-.1,.39-.08,.91,.2,3.42,.71,4.06,.71,.5,0,1.35,.29,2.26,.61,.61,.21,1.57,.5,1.76,.51,.69-.06,5.61,.45,6.59,.56,.2,.02,.37,.16,.43,.35,.05,.16,1.19,3.93,1.19,6.37,0,1.71,.54,3.41,.87,4.43,.12,.37,.21,.65,.24,.82,.11,.61,.25,11.87,.29,14.42,.21,.44,.67,1.52,.61,2.11-.04,.38-.24,.93-.42,1.42-.09,.25-.17,.46-.19,.57,0,.16-.18,1.36-.32,2.3l4.52,1.04c.27,.06,.44,.33,.38,.6-.05,.23-.26,.39-.49,.39Z"/></g><g class="cls-4"><path class="cls-3" d="M346.94,477.44h-4.28c-.2,0-.38-.12-.46-.3l-2.33-5.5c-.06-.13-.05-.29,.01-.42l1.28-2.61s.04-.07,.07-.1c.15-.18,1.52-1.8,1.81-2.09,.11-.13,.39-.87,.6-1.57,.04-.13,.12-.23,.24-.3l1.94-1.06c.19-.1,.42-.07,.58,.07l3.83,3.56c.2,.19,.21,.5,.03,.71-.19,.2-.5,.21-.71,.03l-3.57-3.31-1.45,.79c-.19,.62-.5,1.5-.79,1.79-.19,.19-1.11,1.27-1.71,1.98l-1.15,2.35,2.11,4.99h3.73l2.41-2.62c.19-.2,.5-.21,.71-.03,.2,.19,.22,.5,.03,.71l-2.56,2.78c-.09,.1-.23,.16-.37,.16Z"/></g><g class="cls-4"><path class="cls-3" d="M332.61,439.61c-.13,0-.25-.05-.35-.14-.25-.24-2.45-2.41-3.03-3.38-.22-.34-2.15-.41-4.06-.15-.19,.03-.38-.06-.48-.22-.08-.13-2.07-3.08-2.52-3.87-.44-.77-.43-3.34-.41-4.32-.86-.59-3.2-2.22-3.67-2.85s-1.66-1.61-2.3-1.98c-.45-.26-.69-.81-1.01-1.51-.31-.69-.67-1.48-1.26-2.07-.76-.76-2.23-3.08-3.52-5.12-.82-1.3-1.6-2.52-1.89-2.85-.71-.81-2.31-3.33-2.4-3.86-.04-.22-.23-.99-.34-1.42-1.31-1.11-2.92-2.32-3.3-2.39-.54,.04-9.1,1.7-14.76,2.8-3.15,.61-5.69,1.1-6.24,1.2-1.56,.27-5.01,.39-6.35-.33-.87-.46-3.73-1.14-4.84-1.38l-9.27,.28c-.11,0-.21-.03-.3-.09-.11-.07-2.5-1.76-3.8-3.46h-25.9l-3.54,1.04c-.16,.05-.33,.01-.46-.09l-2.92-2.39h-4.84l-2.71,1.7c-.08,.05-.17,.08-.27,.08h-1.17c-.15,0-.3-.07-.39-.19l-.63-.81h-1.09l-.52,.56c-.09,.1-.23,.16-.37,.16h-1.87c-.28,0-.5-.22-.5-.5s.22-.5,.5-.5h1.66l.52-.56c.09-.1,.23-.16,.37-.16h1.56c.15,0,.3,.07,.39,.19l.63,.81h.78l2.71-1.7c.08-.05,.17-.08,.27-.08h5.17c.12,0,.23,.04,.32,.11l2.85,2.33,3.36-.98s.09-.02,.14-.02h26.22c.16,0,.31,.08,.41,.21,1,1.41,3.04,2.95,3.58,3.34l9.16-.27s.08,0,.12,.01c.16,.04,3.97,.86,5.16,1.49,.97,.52,4.13,.5,5.71,.23,.55-.09,3.08-.59,6.22-1.2,9.82-1.9,14.56-2.81,14.98-2.81,.7,0,2.59,1.48,4.05,2.73,.08,.07,.13,.16,.16,.25,.04,.13,.34,1.31,.4,1.66,.09,.29,1.41,2.51,2.16,3.36,.34,.39,1.07,1.53,1.98,2.98,1.2,1.9,2.7,4.26,3.38,4.94,.72,.72,1.13,1.63,1.46,2.37,.2,.45,.43,.96,.6,1.06,.73,.43,2.05,1.52,2.59,2.24,.33,.44,2.42,1.93,3.66,2.77,.14,.1,.22,.26,.22,.43-.05,1.64,.04,3.67,.27,4.07,.36,.62,1.81,2.8,2.31,3.55,1.43-.18,4.14-.36,4.74,.67,.43,.73,2.21,2.54,2.86,3.17,.2,.19,.2,.51,0,.71-.1,.1-.23,.15-.36,.15Z"/></g><g class="cls-4"><path class="cls-3" d="M291.84,405.41c-.09,0-.19-.03-.28-.08-.18-.12-4.47-2.95-5.14-3.45-.65-.49-2.03-1.89-2.42-3.08-.25-.75-1.28-2.06-1.66-2.5-.08-.09-.12-.21-.12-.32v-26c0-.28,.22-.5,.5-.5h15.36c0-.31-.07-.76-.3-1.18-.46-.84-.12-1.83,.13-2.55,.08-.22,.16-.46,.17-.57l.02-.17c.08-.74,.31-2.99,0-3.97-.37-1.2-.38-5.72-.38-6.23,0-.28,.22-.5,.5-.5s.5,.22,.5,.5c0,1.35,.06,5.04,.34,5.94,.33,1.05,.18,3,.04,4.37l-.02,.16c-.02,.23-.11,.5-.22,.8-.2,.58-.45,1.29-.2,1.75,.58,1.05,.4,2.19,.39,2.24-.04,.24-.25,.42-.49,.42h-15.33v25.32c.37,.45,1.42,1.77,1.72,2.69,.28,.84,1.42,2.1,2.08,2.59,.65,.48,5.05,3.39,5.1,3.42,.23,.15,.29,.46,.14,.69-.1,.15-.25,.22-.42,.22Z"/></g><g class="cls-4"><path class="cls-3" d="M319.81,502.05c-.07,0-.13-.01-.2-.04-.15-.07-3.81-1.66-5.29-3.66-1.34-1.81-2.83-2.69-2.85-2.7-.17-.1-.27-.29-.25-.49,.02-.2,.16-.36,.35-.42,.94-.29,3.53-1.31,4.2-2.59,.95-1.81,2.65-4.02,3.29-4.57,.29-.25,.92-.48,2.1-.91,1.24-.44,2.93-1.05,3.45-1.57,.1-.1,.2-.14,.37-.15,.14,0,.27,.07,.36,.17l1.92,2.17c.11,.12,.15,.29,.11,.45-.03,.14-.26,1.4,1.24,2.14,1.91,.96,2.41,1.49,2.49,1.59,.09,.11,.13,.26,.11,.41-.03,.15-.3,1.52-1,2.12-.22,.19-.59,.52-1.03,.91-.73,.64-1.63,1.44-2.3,2.01-.38,.32-1.15,.8-2.14,1.42-1.5,.93-4.28,2.67-4.45,3.33-.04,.14-.13,.26-.27,.32-.07,.03-.14,.05-.22,.05Zm-7-6.69c.62,.48,1.5,1.27,2.32,2.39,1.05,1.42,3.5,2.69,4.47,3.15,.67-.89,2.38-2,4.62-3.4,.87-.54,1.7-1.06,2.02-1.33,.67-.57,1.56-1.36,2.28-1.99,.44-.39,.82-.73,1.05-.92,.27-.23,.49-.85,.61-1.28-.25-.2-.83-.6-2-1.19-1.6-.8-1.89-2.19-1.81-3l-1.45-1.64c-.81,.54-2.18,1.03-3.41,1.47-.72,.26-1.62,.58-1.79,.72-.5,.43-2.14,2.53-3.05,4.27-.7,1.33-2.67,2.28-3.86,2.75Z"/></g><g class="cls-4"><path class="cls-3" d="M347.75,441.78l-.83-.56s3.01-4.49,3.18-4.74c.24-.35,1.61-1.55,2.58-2.25,.72-.52,1.45-2.13,1.85-3,.12-.27,.22-.48,.29-.62,.15-.28,.18-.88,.21-1.38,.02-.43,.04-.8,.13-1.08,.24-.77,2.37-2.66,3-3.06,.36-.23,.91-1.13,1.27-1.82l-1.07-1.46c-.07-.09-.1-.2-.1-.32l.16-3.36-.4-.75s-.04-.1-.05-.15l-.12-.75c-.02-.14,.01-.28,.1-.39,.07-.09,.72-.89,1.12-1.21,.27-.21,.7-.88,.77-1.46,.08-.68,.66-1.3,.96-1.59,.02-.58,.04-2.2-.08-2.93-.21-1.2,.32-3.4,.42-3.83,.15-.61-.31-1.48-.68-1.88-.6-.66-.57-2.15,.06-2.94-.04-.38-.59-.93-.82-1.1-.23-.17-.29-.45-.4-.92-.05-.21-.14-.61-.23-.79h-4.08c-1.16,0-1.82-1.53-2.08-2.3-.82-.02-2.11-.05-2.33-.08-.16-.03-.42-.07-1.45-1.36-1.08,.03-4.16,.11-4.64,.03-.39-.06-.78-.45-1.66-1.38-.37-.39-.93-.99-1.12-1.07-.61-.19-6.33-.04-6.8,.03-.33,.11-1.49,1.42-1.65,1.88-.14,.39-.34,1.75-.43,2.52,0,.04-.01,.07-.02,.11-.02,.06-.5,1.39-1.09,2.08-.57,.66-2.85,.49-4.76,.2l-5.38,4.94-.34,1.43s-.02,.07-.04,.11c-.03,.06-.76,1.51-1.57,2.23-1.08,.96-6.23,.25-6.93,.12-1.46-.28-6.87-.81-6.92-.81-.28-.03-.48-.27-.45-.55,.03-.28,.27-.47,.55-.45,.22,.02,5.51,.53,7.02,.83,2,.39,5.61,.52,6.07,.12,.59-.53,1.19-1.64,1.32-1.88l.36-1.52c.02-.1,.07-.19,.15-.25l5.67-5.21c.11-.1,.26-.15,.42-.13,1.9,.3,3.78,.36,4.11,.14,.35-.41,.73-1.31,.87-1.68,.05-.38,.27-2.1,.48-2.68,.23-.66,1.67-2.41,2.43-2.53,.31-.05,6.59-.3,7.36,.03,.36,.15,.78,.6,1.45,1.31,.38,.4,.95,1,1.14,1.09,.25,.04,2.58,0,4.65-.06,.14,0,.31,.07,.41,.19,.37,.47,.85,1.03,1.05,1.2,.32,.02,1.46,.05,2.48,.07,.22,0,.42,.15,.47,.37,.22,.79,.78,1.92,1.23,1.92h4.21c.71,0,.91,.87,1.07,1.57,.03,.13,.07,.31,.1,.4,.26,.21,1.05,.91,1.15,1.65,.04,.31-.03,.59-.22,.82-.37,.46-.33,1.39-.1,1.64,.51,.56,1.16,1.76,.91,2.79-.22,.88-.55,2.59-.41,3.42,.17,1,.09,3.26,.09,3.35,0,.14-.07,.28-.18,.37-.28,.23-.73,.72-.78,1.09-.1,.84-.67,1.76-1.15,2.13-.2,.15-.56,.56-.82,.87l.08,.45,.42,.8c.04,.08,.06,.17,.06,.26l-.16,3.32,1.15,1.57c.11,.15,.13,.34,.05,.51-.16,.33-.98,1.99-1.76,2.5-.73,.47-2.44,2.14-2.59,2.52-.05,.16-.07,.5-.09,.83-.04,.62-.07,1.32-.32,1.79-.07,.12-.16,.32-.27,.56-.46,1.02-1.24,2.73-2.18,3.4-1.05,.76-2.2,1.81-2.34,2-.17,.25-3.18,4.73-3.18,4.73Z"/></g><g class="cls-4"><path class="cls-3" d="M377.11,404.33c-.13,0-.25-.05-.35-.14l-1.78-1.72c-.1-.09-.15-.22-.15-.36v-1.31l-1.75-1.35c-.09-.07-.15-.17-.18-.28l-.48-1.98-1.57-2.49c-.04-.07-.07-.14-.08-.22l-.39-4.33c-.02-.19,.08-.37,.24-.47l1.76-1.08v-4.12l-1.03-1.5c-1.4,.47-3,.96-3.42,.9-.2-.03-.62-.08-4.04-3.97l-20.64,7.05v4.55c0,.28-.22,.5-.5,.5s-.5-.22-.5-.5v-4.91c0-.21,.14-.4,.34-.47l21.29-7.28c.2-.07,.4,0,.54,.14,1.49,1.7,3.22,3.56,3.68,3.88,.39-.05,1.97-.53,3.28-.97,.21-.07,.45,0,.57,.19l1.33,1.94c.06,.08,.09,.18,.09,.28v4.56c0,.17-.09,.34-.24,.43l-1.74,1.06,.35,3.9,1.55,2.45s.05,.1,.06,.15l.46,1.88,1.81,1.39c.12,.09,.19,.24,.19,.4v1.34l1.22,1.19,.12-.16,.6-7.57c.02-.22,.18-.41,.4-.45l2.13-.42c.14-1.97,.42-6.06,.42-6.47,0-.52,.5-2.21,.72-2.94-.85-1-3.33-4.01-3.49-5.13-.16-1.06-1.11-2.97-1.45-3.21-.48-.21-2.63-1.29-2.72-1.33-.14-.07-.24-.21-.27-.36-.09-.55-.56-3.32-.5-3.96,.05-.5,.27-1.12,.4-1.45-.29-.65-1.01-2.33-1.01-3.12,0-.85,1.47-4.33,2-5.54-.02-.86-.19-6.58-1.12-8.58-1.05-2.28-2.75-4.08-3.41-4.59-.38-.3-2.22-1.1-3.85-1.8-1.47-.64-2.99-1.3-3.86-1.76-1.78-.94-5.21-2.23-6.68-2.51-1.48-.27-8.56-4.29-9.86-5.04l-10.25,.53c-.49,1.23-2.12,5.28-2.8,6.07-.06,.07-1.43,1.67-.6,2.41,1.13,1,1.13,3.76,.77,5.32-.32,1.38-1.86,5-2.11,5.57l-.21,2.03c-.02,.16-.11,.3-.25,.38-.44,.25-.9,.6-1.06,.78,.26,.66,1.41,2.89,1.75,3.2,.13,.11,.75,.23,1.12,.3,.9,.18,1.75,.34,2.01,.92,.22,.49,1.48,1.67,1.82,1.77h.01c.25,0,.63,.16,1.21,.41,.21,.09,.53,.23,.75,.3,.02-.17,.03-.38,.04-.55,.04-.66,.07-1.29,.43-1.6,.15-.13,.35-.19,.54-.18,.18,.01,.44,.09,.66,.38,.52,.7,.5,2.28,.4,2.77-.09,.47-.27,1.47-.32,1.75l.55,4.2c.02,.15-.03,.29-.13,.4-.1,.11-.23,.17-.39,.16l-1.39-.06c-.12,0-.23-.05-.32-.13l-.8-.72c-1.9,1.42-2.26,1.24-2.47,1.13-.2-.1-.35-.29-1.49-1.83-1.21-1.64-3.23-4.39-4.18-5.04-.55-.38-1.4-.63-2.29-.9-1.47-.44-3.13-.94-4.29-2.17-1.43-1.52-2.2-3.35-2.48-4.14l-.32,.03c.09,1.02,.02,2.29-.87,2.43-.76,.12-6.21,.46-8.32-.42-2.12-.88-3.29-1.37-3.57-2.57-.19-.8-.79-1.39-1.1-1.34-.64,.11-4.32,.98-4.36,.99-.25,.06-.5-.08-.58-.31l-1.4-3.79c-.73,.2-2.1,.56-2.69,.56h-2.17c-.48,.35-1.56,1.1-2.12,1.21-.45,.09-1.38-.11-2.67-.41-.42-.1-.77-.18-.93-.2-.19,.02-.97,.52-1.63,1.06-.2,.16-.49,.15-.67-.03l-1.89-1.89c-.2-.2-.2-.51,0-.71l.85-.85-.21-5.81-2.25-2.31c-.06-.06-.1-.13-.12-.21l-.56-1.94c-.24-.59-1.03-2.75-.51-3.66,.36-.64,1.02-2.23,1.2-2.66l-.67-7.92h-8.71c-.28,0-.5-.22-.5-.5v-2.17h-.91l-1.69,.63c-.06,.02-.12,.03-.18,.03h-4.72v6.33c0,.14-.06,.27-.16,.36-.1,.09-.23,.15-.37,.14l-5.75-.27-2.64,.75s-.09,.02-.14,.02h-5.16c-.18,0-.34-.09-.43-.25l-1.26-2.14-1.35-.6c-.1-.05-.19-.12-.24-.22l-3.33-6.33s-.04-.1-.05-.16l-.99-6.74h-23.18l-.85,1.38c-.09,.14-.25,.23-.42,.24l-6.61,.11h0c-.27,0-.5-.22-.5-.49,0-.28,.22-.5,.49-.51l6.34-.11,.86-1.38c.09-.15,.25-.24,.42-.24h23.89c.25,0,.46,.18,.5,.43l1.04,7.08,3.21,6.1,1.34,.6c.1,.04,.17,.11,.23,.2l1.2,2.03h4.8l2.65-.76c.05-.01,.11-.03,.16-.02l5.31,.25v-6.31c0-.28,.22-.5,.5-.5h5.13l1.69-.63c.06-.02,.12-.03,.18-.03h1.5c.28,0,.5,.22,.5,.5v2.17h8.67c.26,0,.48,.2,.5,.46l.72,8.5c0,.08,0,.16-.03,.23-.04,.09-.85,2.1-1.31,2.89-.19,.33,.15,1.77,.58,2.84l.54,1.87,2.3,2.35c.09,.09,.14,.21,.14,.33l.22,6.22c0,.14-.05,.27-.15,.37l-.65,.65,1.22,1.22c.7-.54,1.51-1.05,2.02-1,.17,.02,.57,.11,1.04,.22,.64,.15,1.95,.44,2.25,.4,.27-.06,1.18-.63,1.85-1.13,.09-.06,.19-.1,.3-.1h2.33c.47,0,2-.4,2.86-.65,.26-.08,.52,.06,.61,.31l1.4,3.81c1.01-.24,3.45-.81,3.99-.9,1.01-.18,1.96,.95,2.23,2.1,.16,.67,1.03,1.06,2.98,1.87,1.8,.75,6.93,.49,7.79,.36,.06-.13,.08-1.02-.03-1.82-.02-.14,.02-.27,.1-.38s.21-.18,.35-.19l1.22-.11c.23-.02,.46,.13,.52,.36,0,.02,.71,2.36,2.38,4.13,.98,1.04,2.44,1.48,3.85,1.9,.97,.29,1.88,.57,2.57,1.03,1.01,.69,2.67,2.88,4.42,5.27,.42,.58,.86,1.17,1.08,1.44,.37-.17,1.17-.71,1.79-1.19,.19-.15,.46-.14,.64,.02l.98,.88,.62,.02-.48-3.69s0-.1,0-.15c0,0,.22-1.29,.33-1.85,.07-.33,.04-.94-.04-1.41,0,.1-.01,.2-.02,.28-.04,.73-.08,1.56-.79,1.56-.34,0-.75-.17-1.4-.45-.3-.13-.75-.32-.88-.33-.79,0-2.4-1.74-2.67-2.35-.12-.12-.88-.27-1.29-.35-.68-.13-1.26-.25-1.59-.54-.62-.55-1.99-3.43-2.09-3.79-.06-.2-.2-.71,1.34-1.67l.2-1.86s.02-.1,.04-.15c.02-.04,1.76-4.09,2.08-5.47,.35-1.52,.23-3.74-.45-4.35-1.17-1.03-.46-2.7,.51-3.81,.49-.56,1.94-4.03,2.75-6.08,.07-.18,.24-.31,.44-.32l10.72-.56c.09,0,.19,.02,.28,.07,3.32,1.9,8.64,4.81,9.68,5,1.57,.29,5.09,1.61,6.97,2.61,.83,.44,2.33,1.09,3.79,1.72,2.24,.97,3.63,1.58,4.07,1.94,.85,.67,2.61,2.61,3.7,4.96,1.09,2.35,1.21,8.82,1.21,9.09,0,.07-.01,.14-.04,.21-.96,2.22-1.96,4.79-1.96,5.25,0,.53,.62,2.06,1.01,2.9,.06,.13,.06,.28,0,.41-.1,.23-.37,.91-.4,1.34-.03,.35,.23,2.15,.45,3.46,.58,.29,2.08,1.04,2.47,1.21,.81,.36,1.86,2.91,2.01,3.96,.1,.68,2.07,3.24,3.44,4.83,.11,.13,.15,.31,.1,.47-.37,1.19-.76,2.61-.76,2.91,0,.57-.43,6.66-.45,6.92-.02,.22-.18,.41-.4,.46l-2.13,.43-.58,7.34c0,.1-.04,.19-.1,.27l-.56,.72c-.09,.11-.22,.18-.36,.19-.01,0-.02,0-.04,0Zm-42.29-31.04h0Z"/></g><g class="cls-4"><path class="cls-3" d="M362.52,380.36c-.26,0-.49-.21-.5-.47-.06-1.07-.42-4.03-1.38-4.87-.1-.09-.16-.21-.17-.34,0-.13,.04-.26,.12-.36l1.47-1.66,.42-1.79c.02-.09,.07-.18,.14-.25l3.33-3.17-1.11-1.31c-.08-.1-.13-.23-.12-.36l.67-9c.01-.16,.1-.31,.24-.39,.88-.53,2.29-1.68,2.34-2.52,.08-1.43-.78-4.4-1.62-4.98-1.12-.77-1.96-1.7-2-1.74-.12-.13-.16-.3-.11-.47l.47-1.72c.07-.27,.35-.42,.62-.35,.27,.07,.42,.35,.35,.62l-.4,1.45c.3,.3,.91,.89,1.64,1.4,1.31,.9,2.13,4.44,2.05,5.86-.08,1.41-1.92,2.73-2.6,3.18l-.63,8.54,1.28,1.51c.17,.2,.16,.5-.04,.69l-3.56,3.4-.42,1.77c-.02,.08-.06,.16-.11,.22l-1.25,1.41c1.15,1.52,1.36,4.8,1.38,5.2,.01,.28-.2,.51-.47,.53,0,0-.02,0-.03,0Z"/></g><g class="cls-4"><path class="cls-3" d="M392.72,362.67c-.06,0-.12,0-.17-.03l-1.74-.63c-.33,.13-1.05,.4-1.43,.53-.58,.19-2.21,.31-3.31-.59-.96-.78-2.37-1.69-3.22-1.9-.34-.09-1.14,.87-1.6,1.75-.09,.18-.28,.28-.49,.27l-5.92-.5c-.28-.02-.48-.26-.46-.54s.27-.47,.54-.46l5.59,.47c.42-.73,1.45-2.24,2.57-1.96,1.19,.3,2.83,1.46,3.61,2.1,.74,.6,1.97,.54,2.36,.41,.49-.16,1.56-.58,1.56-.58,.11-.04,.24-.04,.35,0l1.81,.66,3.54-.33,3.04-3.12c.18-.18,.46-.2,.66-.05,1.22,.92,2.52,1.71,2.84,1.72,.05-.03,.29-.13,.6-.27,1.6-.69,3.39-1.43,4.36-1.55,1.07-.14,3.55-.6,4.16-.71l4.89-4.53c.21-.19,.52-.17,.71,.03,.19,.2,.17,.52-.03,.71l-5,4.62c-.07,.06-.15,.11-.25,.12-.13,.02-3.11,.59-4.36,.75-.91,.12-3.06,1.04-4.09,1.48-.33,.14-.58,.25-.71,.3-.2,.08-.79,.3-3.38-1.61l-2.86,2.94c-.08,.08-.19,.14-.31,.15l-3.83,.36s-.03,0-.05,0Z"/></g><g class="cls-4"><path class="cls-3" d="M348.4,338.17c-.22,0-.42-.15-.48-.37-.7-2.57-2.87-9.56-4.42-10.93-.32-.29-.68-.58-1.07-.89-2-1.63-4.73-3.86-4.43-7.19,.23-2.5-.29-4.34-.67-5.68-.17-.59-.29-1.05-.33-1.45-.05-.51,.13-1.19,.33-1.98,.34-1.34,.76-3,.19-4.14-1.07-2.14-1.14-3.82-1.18-4.83-.04-1.01-.7-3.81-1-4.29-.35-.54-1.65-3.62-1.49-4.68,.16-1.06,3.75-5.54,5-7,.04-.86,.24-4.71,.2-5.57-.03-.63,.66-2.57,1.72-5.46,.47-1.28,1-2.73,1.03-3,0-.56-.04-2.13-.04-2.13,0-.17,.08-.33,.22-.42l2.28-1.57,.36-1.09c.05-.15,.17-.27,.33-.32l1.64-.51c1.76-1.7,4.56-4.46,4.84-4.91,.21-.34-.27-1.24-.64-1.49-.16-.11-.46-.14-.72-.16-.34-.03-.7-.07-.95-.29-.34-.29-.51-.86-.51-1.71,0-.38-.08-6.24-.08-6.24,0-.1,.03-.19,.08-.28l.98-1.53c-1.13,.12-2.79,.3-3.22,.3-.83,0-1.65-.71-1.89-1.37-.06-.16-.55-.52-1.46-.82-.9-.29-2.31-1.72-2.62-2.5-.22-.54-.29-1.84-.32-2.52l-1.24-.36-1.08,1.08c-.1,.1-.24,.16-.38,.15-1.56-.08-4.24-.15-4.76-.02-.63,.17-1.21,.8-1.21,.81-.15,.17-.4,.22-.61,.11l-7.7-4.12-9.69-.82c-.06,0-.12-.02-.17-.04l-3.99-1.86-1.05,1.56c-.08,.12-.21,.2-.35,.22l-2.71,.38-2.93,.09c-.1,0-.21-.03-.3-.09l-.64-.45-1.41,1.21c-.06,.05-.12,.08-.19,.1l-5.58,1.58c-.16,.04-.33,0-.46-.1l-.95-.81-4.32,.73c-.14,1.06-.57,3.87-1.44,4.93-.09,.11-.22,.17-.35,.18-.14,.01-.27-.04-.37-.13-.03-.02-3.03-2.62-13.16-2.66-.18,0-.35-.1-.44-.27-.53-1.01-2.22-3.75-3.58-4.31-1.29-.53-2.65-.67-3.31-.74-.4-.04-.52-.05-.66-.14-.06,0-.66-.1-1.23-.18-1.52,1.73-3.83,4.38-4.02,4.69-.03,.14,.02,.93,.07,1.5,.07,.99,.14,1.92-.01,2.46-.21,.74-.68,2.71-.8,3.23l.34,1.21c.13,.5,.15,1.43-.64,1.8-.33,.15-1.03,1.35-1.42,2.28-.23,.55-1.76,6.06-1.79,6.75-.04,.75-1.38,5.46-2.09,6.23-.1,.11-.17,.48,.48,1.77,.05,.1,.09,.18,.11,.23,.19,.43,.11,1.8,.04,2.58,0,.1-.04,.19-.1,.26-.57,.73-1.09,1.58-1.1,1.81-.03,.4,.12,1.28,.19,1.64l.89,1.99c.08,.18,.05,.39-.08,.54-1.81,2.04-4.92,5.49-5.46,5.75-.29,.14-.7,.13-1.21,.12-.51-.01-1.45-.03-1.57,.25-.35,.86-.68,2.39-.68,2.41-.03,.16-.14,.29-.28,.35-.88,.4-2.37,1.34-2.6,2.14-.14,.51-.37,1.69-.61,2.94-.49,2.53-.83,4.22-1.1,4.71-.17,.31-.35,1.4-.35,3.55,0,.76,.02,2.53-1.1,3.47-.87,.72-1.91,.89-2.37,.94-.61,.7-2.99,3.42-4.06,4.42-1.08,1.01-2.74,2.06-3.66,2.01-.71-.04-.86-.95-1.08-2.2-.11-.64-.32-1.83-.56-2-.47-.08-3.04,1.26-5.1,2.54-.09,.05-.19,.08-.3,.07l-4.2-.27c-.21,.43-.57,1.08-.94,1.35-.24,.17-1.13,1.15-1.76,1.87l-.24,3.96c0,.16-.1,.31-.24,.4l-2.13,1.31c-.23,.15-.54,.07-.69-.16-.14-.24-.07-.54,.16-.69l1.9-1.17,.23-3.87c0-.11,.05-.21,.12-.3,.26-.31,1.6-1.85,2.05-2.17,.18-.12,.53-.76,.74-1.25,.08-.19,.28-.33,.49-.3l4.38,.28c1.82-1.12,4.86-2.86,5.82-2.55,.78,.25,.99,1.47,1.22,2.77,.08,.45,.19,1.1,.3,1.36,.51-.08,1.64-.67,2.78-1.73,1.17-1.09,4.1-4.47,4.13-4.5,.09-.11,.23-.17,.38-.17,.01,0,1.13-.02,1.97-.72,.76-.63,.74-2.11,.74-2.59v-.11c0-2.1,.16-3.46,.48-4.03,.21-.38,.68-2.81,.99-4.41,.26-1.33,.48-2.47,.63-3.02,.37-1.3,2.23-2.33,2.92-2.67,.11-.49,.38-1.6,.68-2.34,.38-.92,1.62-.89,2.51-.87,.26,0,.67,.02,.77-.02,.38-.25,3.04-3.15,4.92-5.26l-.78-1.75s-.03-.07-.03-.11c-.03-.13-.26-1.33-.22-1.97,.04-.62,.86-1.75,1.22-2.24,.06-.81,.09-1.75,.02-1.96-.01-.03-.05-.09-.09-.17-.34-.68-1.06-2.1-.32-2.9,.43-.46,1.78-4.76,1.82-5.6,.04-.84,1.64-6.54,1.87-7.08,.04-.1,1-2.38,1.92-2.8,.22-.1,.1-.62,.1-.63l-.37-1.33c-.02-.08-.02-.17,0-.25,.02-.1,.59-2.52,.84-3.4,.1-.36,.03-1.33-.02-2.11-.09-1.27-.11-1.78,.08-2.09,.26-.43,3.63-4.27,4.3-5.03,.11-.13,.28-.19,.44-.17,1.29,.17,1.67,.26,1.82,.32,.06,0,.17,.02,.3,.03,.7,.07,2.16,.22,3.58,.8,1.7,.7,3.43,3.6,3.94,4.51,8.26,.07,11.87,1.81,13.06,2.57,.56-1.14,.92-3.47,1.02-4.38,.02-.22,.19-.4,.41-.44l4.92-.83c.15-.03,.3,.02,.41,.11l.92,.79,5.22-1.48,1.62-1.39c.17-.15,.42-.16,.61-.03l.82,.57,2.71-.08,2.43-.34,1.17-1.73c.14-.2,.4-.28,.63-.17l4.29,2,9.7,.83c.07,0,.13,.03,.19,.06l7.47,3.99c.3-.27,.83-.67,1.42-.83,.76-.2,3.82-.08,4.85-.03l1.14-1.13c.13-.13,.32-.18,.49-.13l1.88,.54c.21,.06,.36,.25,.36,.47,.02,.83,.11,2.16,.25,2.53,.21,.53,1.4,1.72,2,1.92,.67,.22,1.82,.69,2.09,1.43,.1,.28,.55,.71,.95,.71,.49,0,3.16-.3,4.15-.41,.19-.02,.38,.07,.48,.23,.1,.16,.1,.37,0,.53l-1.46,2.29c.01,.92,.08,5.77,.08,6.11,0,.64,.12,.91,.16,.96,.04,.01,.26,.04,.4,.05,.36,.04,.81,.08,1.18,.33,.66,.44,1.54,1.89,.94,2.85-.43,.68-4.3,4.43-5.08,5.18-.06,.05-.12,.09-.2,.12l-1.5,.47-.33,1.01c-.03,.1-.1,.19-.19,.25l-2.19,1.51c.01,.48,.04,1.47,.04,1.91,0,.29-.23,.97-1.09,3.32-.63,1.72-1.68,4.59-1.66,5.08,.04,1.01-.2,5.64-.21,5.84,0,.11-.05,.22-.12,.3-1.82,2.07-4.75,5.98-4.88,6.62-.09,.62,.97,3.4,1.34,3.99,.46,.71,1.12,3.77,1.16,4.79,.04,.93,.1,2.48,1.07,4.42,.74,1.47,.26,3.34-.12,4.84-.17,.67-.33,1.31-.3,1.65,.03,.31,.15,.76,.3,1.27,.38,1.34,.95,3.35,.7,6.04-.26,2.81,2.14,4.76,4.07,6.33,.4,.32,.77,.63,1.1,.92,2.05,1.82,4.45,10.44,4.72,11.42,.07,.27-.08,.54-.35,.61-.04,.01-.09,.02-.13,.02Z"/></g><g class="cls-4"><path class="cls-3" d="M209.94,311.91c-.13,0-.26-.05-.36-.15-.19-.2-.19-.51,0-.71,.32-.31,3.11-3.07,3.86-3.55,.18-.12,.35-.25,.51-.38,.51-.41,1.15-.91,1.88-.51,.59,.32,1.16,.93,1.79,1.92,.15,.23,.08,.54-.15,.69-.23,.15-.54,.08-.69-.15-.52-.82-1.01-1.35-1.43-1.58-.13-.07-.34,.06-.78,.41-.19,.15-.39,.31-.6,.44-.5,.32-2.48,2.21-3.69,3.41-.1,.1-.22,.14-.35,.14Z"/></g><g class="cls-4"><path class="cls-3" d="M204.7,268.16h-12.41c-.28,0-.5-.22-.5-.5s.22-.5,.5-.5h11.91v-7.67c0-.28,.22-.5,.5-.5s.5,.22,.5,.5v8.17c0,.28-.22,.5-.5,.5Z"/></g><g class="cls-4"><path class="cls-3" d="M204.7,304.76c-.06,0-.13-.01-.19-.04-.25-.11-.38-.4-.27-.65l1.75-4.21c.09-.22,.34-.35,.57-.3,.6,.13,1.66,.4,1.98,.65,.2,.16,.68,.4,.93,.46,.03-.21,.04-.47,.06-.75,.06-.81,.12-1.64,.35-2.1,.15-.29,.19-.77,.08-.96-.8-.09-2.17-.37-2.23-.38-.24-.05-.41-.26-.4-.5l.06-2.11c0-.23,.16-.42,.38-.47l6.58-1.55-.67-3.13c-.04-.18,.03-.38,.18-.5,.15-.12,.35-.14,.52-.07,.36,.16,3.32,1.54,4.44,3.01,.6-.2,1.67-.49,2.34-.18,.6,.28,1.5,.26,1.79,.12,.43-.22,1.24-.7,1.24-.7,.21-.13,.49-.08,.64,.11,.76,.92,1.74,1.96,2.16,2.22,.42-.49,1.23-2.49,1.24-2.9v-3.28c0-.12,.04-.24,.13-.33l.68-.77-.73-6.21-2.17-2.12h-1.52c-.18,0-.34-.1-.43-.25s-.09-.35,0-.5l1.49-2.55,.05-2.48c0-.15,.08-.3,.2-.39,1.05-.78,2.25-1.93,2.3-2.33,.03-.28,.06-.6,.09-.91,.07-.73,.12-1.24,.21-1.58-.34-.34-1.63-1.05-2.24-1.18-.66-.14-1.36,.02-1.6,.25-.47,.47-1.75,.66-2.13,.7l-3.24,.66c-.23,.05-.48-.08-.57-.31-.09-.22-.52-1.37-.58-1.78-.03-.21-.04-.64-.06-1.34-.01-.51-.03-1.03-.05-1.29-.05-.46,.25-1.35,.48-1.97l-5.2-1.14-1,1.12c-.09,.11-.23,.17-.37,.17h-14.03c-.07,0-.15-.02-.21-.05l-1.95-.92h-1.89c-.28,0-.5-.22-.5-.5s.22-.5,.5-.5h2c.07,0,.15,.02,.21,.05l1.95,.92h13.69l1.05-1.17c.12-.13,.3-.19,.48-.15l6.06,1.33c.15,.03,.27,.13,.34,.26,.07,.13,.07,.29,.02,.42-.33,.78-.66,1.78-.63,2.03,.03,.28,.04,.83,.06,1.36,.01,.49,.03,1.05,.05,1.22,.02,.17,.21,.7,.38,1.17l2.86-.58c.71-.08,1.44-.28,1.58-.42,.51-.51,1.56-.73,2.51-.52,.66,.14,2.62,1.07,2.99,1.78,.13,.26,.08,.47,.04,.58-.08,.19-.15,.93-.2,1.48-.03,.33-.06,.66-.1,.94-.12,.93-1.75,2.28-2.5,2.86l-.05,2.37c0,.08-.03,.17-.07,.24l-1.12,1.92h.85c.13,0,.26,.05,.35,.14l2.44,2.39c.08,.08,.13,.19,.15,.3l.78,6.61c.02,.14-.03,.28-.12,.39l-.71,.8v3.09c0,.5-1.07,3.84-2.12,3.94-.19,.03-.76,.09-2.77-2.29-.29,.17-.68,.39-.94,.52-.63,.32-1.85,.27-2.66-.1-.35-.16-1.36,.11-1.93,.34-.24,.1-.51,0-.63-.23-.44-.84-2.1-1.86-3.29-2.49l.56,2.6c.06,.27-.11,.53-.37,.59l-6.68,1.58-.03,1.3c.46,.08,1.19,.21,1.64,.25,.37,.03,.67,.22,.85,.54,.31,.55,.2,1.39-.05,1.9-.14,.28-.2,1.12-.25,1.73-.03,.37-.05,.71-.09,.96-.05,.31-.23,.55-.51,.66-.79,.3-2.01-.62-2.02-.62-.12-.08-.64-.23-1.17-.36l-1.58,3.82c-.08,.19-.27,.31-.46,.31Zm22.2-11.95h0Z"/></g><g class="cls-4"><path class="cls-3" d="M241.06,264.08c-.13,0-.26-.05-.36-.15-.84-.87-2.13-2.18-2.37-2.36-.22-.15-1.57-.59-2.38-.85-.56-.19-1.09-.36-1.4-.47-.8-.3-5.34-.92-7.31-.86-1.96,.05-7.91,.6-7.97,.61-.26,.02-.52-.18-.54-.45-.03-.27,.18-.52,.45-.54,.25-.02,6.04-.56,8.03-.61,1.99-.04,6.69,.55,7.69,.92,.3,.11,.81,.28,1.36,.46,1.45,.48,2.35,.78,2.64,.99,.25,.18,1.02,.95,1.65,1.59v-2.85s0-.07,.01-.11l.37-1.63-.43-2.91c-.02-.13,.01-.27,.1-.38,.39-.51,3.86-5.03,5.06-5.83,.91-.61,3.77-.8,7.13-.97,.81-.04,1.5-.07,1.93-.12,1.86-.18,3.95,1.01,4.04,1.07,.24,.14,.32,.44,.18,.68s-.45,.32-.68,.18c-.02,0-1.9-1.08-3.44-.93-.44,.04-1.15,.08-1.98,.12-2.05,.1-5.87,.29-6.62,.8-.87,.58-3.57,3.97-4.7,5.44l.41,2.79c0,.06,0,.12,0,.18l-.38,1.67v4.03c0,.2-.12,.39-.31,.46-.06,.02-.12,.04-.19,.04Z"/></g><g class="cls-4"><path class="cls-3" d="M242.17,253.78c-.08,0-.16-.02-.24-.06-1.16-.63-3.22-1.67-3.85-1.78-1.28-.23-3.73-2.77-4.51-5.81-.75-2.95-4.41-9.03-4.44-9.09-.09-.14-.1-.32-.02-.47,.6-1.25,2.59-5.35,3.23-5.93,.44-.4,.98-.96,1.23-1.22l.05-3.08c0-.08,.03-.17,.07-.24l1.75-3c.09-.15,.25-.25,.43-.25h3.21l1.91-2.68c.08-.11,.2-.19,.34-.21,.14-.02,.27,.02,.38,.1l2.81,2.21,.4-1.35c.04-.13,.13-.24,.26-.31,5.64-2.79,14.82-7.42,15.44-7.97,.83-.77,4.84-4.3,5.01-4.45,.08-.07,.18-.12,.29-.12l7.13-.54,2.81-3.23c.08-.1,.2-.16,.33-.17l2.48-.26,2.04-2.14c.09-.1,.23-.16,.36-.16h2.08l2.91-3.91c.09-.13,.24-.2,.4-.2h3.88c.28,0,.5,.22,.5,.5s-.22,.5-.5,.5h-3.62l-2.91,3.91c-.09,.13-.24,.2-.4,.2h-2.12l-2.02,2.12c-.08,.09-.19,.14-.31,.15l-2.47,.26-2.82,3.24c-.09,.1-.21,.16-.34,.17l-7.17,.54c-.7,.62-4.13,3.64-4.86,4.32-.82,.77-12.62,6.62-15.48,8.04l-.55,1.85c-.05,.16-.17,.28-.33,.33-.16,.05-.33,.02-.46-.08l-2.98-2.34-1.75,2.46c-.09,.13-.25,.21-.41,.21h-3.18l-1.54,2.64-.05,3.15c0,.12-.05,.24-.13,.33-.03,.03-.8,.85-1.42,1.42-.33,.31-1.7,2.93-2.88,5.38,.7,1.17,3.71,6.34,4.42,9.12,.76,2.99,3.08,4.96,3.71,5.08,1,.18,3.84,1.71,4.16,1.89,.24,.13,.33,.44,.2,.68-.09,.17-.26,.26-.44,.26Z"/></g><g class="cls-4"><path class="cls-3" d="M338.09,309.15c-.15,0-.31-.07-.4-.21-.16-.22-.11-.54,.11-.7l1.97-1.43c.08-.06,.19-.1,.29-.1h.86l3.18-2.98,.63-3.12c.02-.09,.06-.17,.12-.23l2.07-2.34,.16-.95-1.11-1.21c-.09-.09-.13-.22-.13-.35l.06-3.28c0-.28,.27-.48,.51-.49,.28,0,.5,.23,.49,.51l-.05,3.08,1.14,1.24c.1,.11,.15,.27,.12,.42l-.22,1.33c-.02,.09-.06,.18-.12,.25l-2.08,2.34-.64,3.15c-.02,.1-.07,.19-.15,.27l-3.44,3.22c-.09,.09-.21,.13-.34,.13h-.89l-1.83,1.33c-.09,.06-.19,.1-.29,.1Z"/></g><g class="cls-4"><path class="cls-3" d="M339.03,296.41c-.5,0-.99-.09-1.29-.39-.25-.24-1.46-.38-2.43-.35-.29,0-.51-.21-.51-.49,0-.28,.21-.51,.49-.51,.57-.01,2.48-.02,3.15,.63,.17,.16,.98,.13,1.77-.05l.81-3.11c.06-.22,.26-.37,.48-.37h5.94l.39-.3v-3.94l-2.14-3.32c-.05-.07-.07-.15-.08-.23l-.08-1.04h-.47l-2.13,2.54c-.1,.12-.24,.19-.42,.18l-3.21-.24c-.28-.02-.48-.26-.46-.54,.02-.28,.26-.48,.54-.46l2.95,.22,2.11-2.53c.1-.11,.24-.18,.38-.18h1.17c.26,0,.48,.2,.5,.46l.1,1.37,2.15,3.34c.05,.08,.08,.18,.08,.27v4.33c0,.16-.07,.3-.2,.4l-.72,.56c-.09,.07-.19,.1-.3,.1h-5.72l-.79,3.02c-.04,.17-.18,.31-.35,.35-.3,.09-1.02,.27-1.71,.27Z"/></g><g class="cls-4"><path class="cls-3" d="M410.33,309.79c-.09,0-.18-.02-.26-.07-.03-.02-3.38-2.07-4.47-2.67l-.55-.3c-1.23-.66-3.09-1.66-4.74-2.97-1.78-1.42-2.87-4.93-3.12-5.8l-23.88-15.59-27.29,.55c-.3-.03-.5-.21-.51-.49,0-.28,.21-.5,.49-.51l27.44-.56c.11,.01,.2,.03,.28,.08l24.17,15.78c.1,.07,.18,.17,.21,.29,.01,.04,1.09,4.08,2.83,5.46,1.58,1.25,3.4,2.23,4.6,2.88l.56,.3c1.11,.61,4.38,2.61,4.51,2.69,.24,.14,.31,.45,.17,.69-.09,.15-.26,.24-.43,.24Z"/></g><g class="cls-4"><path class="cls-3" d="M428.01,287.05c-.14,0-.28-.06-.38-.18l-5.06-5.94c-.08-.09-.12-.21-.12-.32v-27.33c0-.12,.04-.24,.13-.33l9.89-11.11c.08-.09,.18-.14,.29-.16l3.87-.65c.88-.69,5.3-4.12,6.52-4.46,1.18-.32,7.42-.09,8.91-.03l20.03-23.66h-5.14c-.05,0-.1,0-.15-.02l-28.44-8.89c-.18-.06-.32-.21-.34-.4-.22-1.4-.76-3.58-1.28-4.03-.05-.04-4.88-4.6-3.07-7.01,1.31-1.75,3.85-5.45,3.88-5.48,.16-.23,.47-.29,.7-.13s.29,.47,.13,.7c-.03,.04-2.58,3.75-3.9,5.52-.97,1.29,1.74,4.61,2.93,5.66,.86,.75,1.38,3.31,1.56,4.32l28.08,8.77h6.15c.19,0,.37,.11,.45,.29,.08,.18,.05,.38-.07,.53l-20.89,24.67c-.1,.12-.25,.18-.4,.18-3.09-.13-8.01-.25-8.85-.02-.82,.22-4.28,2.79-6.27,4.35-.07,.05-.14,.09-.23,.1l-3.83,.64-9.64,10.84v26.96l4.94,5.8c.18,.21,.15,.53-.06,.71-.09,.08-.21,.12-.32,.12Z"/></g><g class="cls-4"><path class="cls-3" d="M370.72,282.44c-.28,0-.5-.22-.5-.5v-9.11c0-.12,.04-.24,.12-.33l8.38-9.68-1.04-3.52c-.02-.08-.03-.16-.01-.24l.42-2.09-2.99-9.17c-1.04-.28-2.96-.84-3.41-1.28-.48-.48-1.32-1.94-1.42-2.11-.14-.24-.05-.54,.19-.68,.24-.13,.54-.05,.68,.19,.33,.58,.96,1.61,1.25,1.89,.25,.22,1.86,.74,3.22,1.09,.17,.04,.3,.17,.35,.33l3.11,9.56c.03,.08,.03,.17,.01,.25l-.42,2.1,1.08,3.66c.05,.16,0,.34-.1,.47l-8.43,9.75v8.92c0,.28-.22,.5-.5,.5Z"/></g><g class="cls-4"><path class="cls-3" d="M412.35,248.55h-10.67c-.14,0-.28-.06-.37-.17-.04-.04-3.49-3.86-4.87-5.04-1.41-1.21-6.34-4.66-6.94-4.86-.47-.12-1.69-.19-3.61-.19-1.46,0-4.66-1.23-5.52-1.58-.57,.28-2.17,1.07-3.08,1.45-.74,.31-2.88,2.63-4.16,4.01-.42,.45-.78,.85-1.05,1.13-1.23,1.27-3.28,2.53-4.58,3.07-1.19,.49-6.25,.7-7.35,.74l-1.46,1.08c-.11,.08-.25,.11-.39,.09-1.28-.23-4.74-.83-5.39-.87-.59-.03-1.78,.33-2.18,.47-.26,.09-.55-.05-.64-.31-.09-.26,.04-.55,.31-.64,.17-.06,1.64-.57,2.57-.53,.76,.04,4.38,.68,5.31,.84l1.41-1.04c.08-.06,.18-.09,.28-.1,2.43-.08,6.33-.33,7.16-.67,1.23-.51,3.15-1.71,4.25-2.84,.27-.28,.63-.67,1.04-1.11,1.95-2.11,3.63-3.89,4.5-4.25,1.06-.45,3.2-1.52,3.22-1.53,.13-.06,.28-.07,.41-.02,1.08,.44,4.14,1.59,5.35,1.59,2.07,0,3.3,.07,3.88,.22,.79,.21,6.08,4.01,7.32,5.06,1.27,1.09,4.12,4.2,4.81,4.96h10.13c.95-1.95,2.2-4.16,3.03-4.29,3.81-.6,4.67-.94,4.86-1.06,.76-.46,1.69-.97,1.69-.97,.17-.09,.37-.08,.52,.03l3.54,2.4h3.26l1.23-1.62c.09-.11,.22-.19,.36-.2l2.28-.18c.25-.02,.52,.18,.54,.46,.02,.27-.18,.52-.46,.54l-2.05,.16-1.24,1.64c-.09,.12-.24,.2-.4,.2h-3.67c-.1,0-.2-.03-.28-.09l-3.41-2.31c-.32,.18-.89,.5-1.38,.8-.55,.34-2.19,.71-5.14,1.18-.45,.2-1.64,2.24-2.5,4.03-.08,.17-.26,.28-.45,.28Z"/></g><g class="cls-4"><path class="cls-3" d="M323.22,238.8s-.03,0-.04,0c-.28-.02-.48-.26-.46-.54l.23-3.08c-.7-.82-2.19-2.54-2.46-2.82-.3-.3-.53-.9-.79-1.59-.04-.11-.07-.21-.1-.28-.3-.06-.98-.13-1.41-.18-.47-.05-.92-.1-1.19-.14-.87-.15-2.74-1.96-2.89-2.81-.09-.47,.05-1.1,.23-1.81,.03-.11,.05-.21,.07-.29-.22-.15-.67-.4-1.02-.6-.53-.29-1.08-.6-1.46-.88-.8-.59-4.96-5.56-5.93-6.73-.79,.02-3.24,.04-4.56-.3-1.84-.48-1.53-2.82-1.39-3.82l.02-.17c.11-.89,.49-3.04,.5-3.13,0-.06,.03-.11,.06-.16,.06-.1,1.39-2.42,2.38-3.29,.75-.67,1.76-4.3,1.95-5.64,.19-1.34,1.68-3.21,3.66-3.21,1.37,0,2.94,1.82,4.21,3.28,.43,.5,.88,1.02,1.06,1.14,.64,.41,2.52,.36,4.35,.31,.94-.03,2.42-.17,3.85-.31,1.76-.17,3.43-.32,4.21-.3,1.11,.04,1.58,1.2,1.93,2.04,.12,.29,.3,.73,.41,.82,.09-.02,.38-.02,.74,0,1.11,.02,3.19,.06,3.74-.06,.24-.09,.68-1.12,.89-2.12,.05-.23,.25-.4,.49-.4,.02,0,1.93,0,3.16-.16,.4-.05,.5-.45,.42-1.56-.02-.25-.03-.46-.02-.6,.03-.28,.22-.54,.58-.8,.75-.54,2.45-1.18,3.42-.97,.35,.08,.91,.33,1.69,.69,1.71,.78,4.29,1.96,6.26,1.96,2.33,0,3.19-1.66,3.76-2.76,.07-.13,.13-.26,.19-.37,.54-.97,2.46-3.46,4.04-4.56,.93-.64,.88-1.92,.85-3.04-.01-.32-.02-.63,0-.9,.04-.84-.95-1.7-1.43-2.12-.11-.1-.2-.18-.26-.23-.41-.41-.64-1.28-.69-1.45-.04-.16,0-.33,.11-.45,.11-.12,.28-.19,.43-.17,.54,.06,2.05,.21,2.51,.17,.23-.04,.97-.67,1.56-1.33,.09-.11,.23-.17,.37-.17h2.83c.14,0,.26,.05,.36,.15,.09,.1,.14,.23,.14,.36,0,0-.06,1.77-.06,2.82,0,.5,.2,1.32,.38,2.04,.18,.75,.34,1.4,.34,1.85,0,.7,.04,3.42,.05,4.28,1.04,.69,4.09,2.78,4.53,3.99,.33,.9,2.25,2.72,2.97,3.35,.11,.09,.17,.23,.17,.38v8.44c0,.15-.07,.3-.19,.39l-.83,.67c-.56,.45-1.46,.38-2.41,.31-.82-.07-1.74-.14-2.36,.15-.94,.43-2.28,2.33-2.94,3.37,.54,.42,1.53,1.2,1.89,1.52,.18,.15,1.13,.35,1.69,.47,.79,.17,1.46,.31,1.84,.53,.69,.4,7.02,5.88,7.74,6.5,.07,.06,.12,.14,.15,.22,.02,.06,.51,1.58,.68,2.32,.49,2.15,1.48,5.52,1.89,5.92,.32,.16,2.62,.51,4.62,.76,.25,.03,.44,.24,.44,.5v3.51c0,.28-.22,.5-.5,.5s-.5-.22-.5-.5v-3.07c-1.2-.15-3.94-.52-4.56-.83-.91-.45-2.05-5.13-2.37-6.56-.13-.57-.49-1.72-.61-2.1-2.7-2.34-7.03-6.04-7.49-6.3-.24-.14-.96-.29-1.54-.41-1.11-.23-1.8-.4-2.15-.7-.48-.43-2.18-1.74-2.2-1.76-.2-.15-.25-.43-.12-.65,.21-.35,2.07-3.43,3.61-4.14,.85-.4,1.92-.31,2.85-.24,.68,.05,1.45,.12,1.71-.09l.65-.52v-7.98c-.64-.58-2.66-2.45-3.08-3.61-.27-.73-2.71-2.57-4.36-3.64-.14-.09-.22-.25-.23-.41,0,0-.06-3.73-.06-4.56,0-.33-.16-.98-.31-1.61-.2-.81-.41-1.66-.41-2.28,0-.7,.02-1.72,.04-2.33h-2.1c-.49,.53-1.41,1.44-2.07,1.5-.4,.03-1.27-.03-1.93-.09,.06,.13,.12,.23,.18,.29,.05,.05,.12,.11,.21,.19,.59,.52,1.83,1.59,1.77,2.91-.01,.25,0,.53,0,.83,.04,1.24,.09,2.95-1.28,3.9-1.38,.96-3.23,3.31-3.74,4.22-.06,.1-.12,.21-.18,.34-.6,1.16-1.71,3.31-4.65,3.31-2.18,0-4.89-1.24-6.68-2.06-.64-.29-1.25-.57-1.49-.62-.79-.17-2.6,.64-2.8,.97,.01,.02,.03,.17,.04,.35,.06,.79,.19,2.44-1.29,2.63-.96,.12-2.25,.16-2.89,.17-.23,.9-.72,2.31-1.57,2.49-.61,.13-2.29,.11-3.96,.08-.35,0-.63-.01-.81-.01-.67,0-.95-.69-1.25-1.41-.27-.66-.58-1.4-1.05-1.42-.73-.04-2.42,.14-4.08,.3-1.45,.14-2.95,.29-3.89,.31-2.19,.06-4.05,.11-4.95-.47-.29-.19-.66-.6-1.28-1.32-.95-1.1-2.53-2.93-3.45-2.93-1.4,0-2.54,1.41-2.67,2.35-.12,.86-1.11,5.22-2.28,6.25-.78,.69-1.9,2.57-2.13,2.97-.07,.42-.39,2.23-.48,3l-.02,.18c-.17,1.28-.21,2.49,.65,2.72,1.41,.37,4.49,.26,4.52,.26,.13,0,.3,.06,.4,.18,1.98,2.39,5.34,6.33,5.91,6.75,.33,.24,.87,.54,1.36,.81,1.11,.61,1.57,.87,1.57,1.32,0,.15-.04,.33-.13,.68-.1,.41-.27,1.1-.21,1.4,.09,.42,1.58,1.91,2.08,2,.25,.04,.67,.09,1.12,.13,1.58,.17,1.88,.22,2.07,.48,.08,.11,.14,.27,.28,.64,.12,.34,.38,1.06,.55,1.23,.38,.38,2.56,2.92,2.65,3.03,.09,.1,.13,.23,.12,.36l-.25,3.29c-.02,.26-.24,.46-.5,.46Z"/></g><g class="cls-4"><path class="cls-3" d="M372.67,202.61c-.07,0-.13-.01-.2-.04-.25-.11-.37-.4-.26-.66l.77-1.79v-3.98c0-.2,.12-.38,.31-.46l3.14-1.3,.72-7.95c0-.08,.04-.17,.08-.23,.02-.03,2.25-3.33,2.66-3.99,.26-.41,1.11-.94,2.49-1.76,.76-.45,1.9-1.14,2.07-1.37,.18-.42,1.43-4.03,1.94-5.5-.14-2.24-.52-7.87-.65-8.59-.13-.74-.5-3.25,.39-4.83,.67-1.19,1.79-4.98,1.94-5.5,.03-1.01,.25-7.41,.34-7.99,.12-.86,1.19-1.81,2.24-2.01,.8-.15,2.81-.78,3.14-.88,.55-.31,2.82-1.54,3.87-1.54,.3-.2,.88-2.22,1.18-4.29,.04-.27,.29-.46,.57-.42,.27,.04,.46,.29,.42,.57-.34,2.35-.98,5.15-2.17,5.15-.63,0-2.43,.88-3.42,1.44-.03,.02-.06,.03-.09,.04-.1,.03-2.38,.76-3.31,.93-.76,.14-1.38,.84-1.43,1.16-.06,.41-.23,4.98-.33,7.95,0,.04,0,.08-.02,.12-.05,.18-1.28,4.4-2.04,5.77-.58,1.03-.51,2.88-.28,4.17,.17,.93,.65,8.49,.67,8.81,0,.07,0,.13-.03,.2-.07,.21-1.76,5.11-2.02,5.7-.17,.4-.81,.81-2.46,1.8-.79,.47-1.99,1.19-2.16,1.44-.38,.6-2.21,3.32-2.6,3.91l-.74,8.12c-.02,.19-.13,.35-.31,.42l-3.11,1.29v3.75c0,.07-.01,.13-.04,.2l-.81,1.89c-.08,.19-.27,.3-.46,.3Z"/></g><g class="cls-4"><path class="cls-3" d="M431.3,181.72c-.14,0-.28-.06-.38-.17-.01-.01-1.06-1.22-2.09-2.01-.53-.41-2.26-1.25-4.08-2.14-1.7-.83-3.47-1.69-4.7-2.4-1.4-.81-2.8-1.97-4.16-3.08-1.21-1-2.36-1.94-3.43-2.59l-.5-.31c-2.33-1.43-6.67-4.08-8.75-3.79-1.76,.24-2.78-.33-3.6-.79-.38-.21-.72-.4-1.06-.47-.42-.06-1.71,1.69-2.78,4.05-.09,.19-.3,.3-.5,.29-2.5-.2-3.96-.34-4.36-.42-.35,.01-2.43,.43-4.28,.83-.26,.06-.54-.11-.59-.38-.06-.27,.11-.54,.38-.59,4.33-.95,4.58-.87,4.72-.82,.21,.05,2.09,.22,3.87,.36,.76-1.6,2.37-4.58,3.74-4.3,.5,.1,.94,.34,1.36,.58,.76,.42,1.55,.87,2.98,.67,2.44-.34,6.8,2.33,9.41,3.93l.5,.31c1.13,.69,2.3,1.65,3.55,2.67,1.33,1.09,2.7,2.22,4.03,2.99,1.2,.7,2.94,1.55,4.63,2.37,1.95,.95,3.64,1.78,4.25,2.25,1.11,.86,2.19,2.1,2.24,2.15,.18,.21,.16,.52-.05,.71-.09,.08-.21,.12-.33,.12Z"/></g><g class="cls-4"><path class="cls-3" d="M428.77,192.72s-.07,0-.11,0c-.24-.03-.45-.17-.64-.43-.62-.85-1.13-3.46-.96-4.33,.2-.98,2.8-5.52,3.42-6.36,.68-.93,4.01-4.33,4.15-4.48,.19-.2,.51-.2,.71,0,.2,.19,.2,.51,0,.71-.03,.04-3.42,3.49-4.05,4.37-.67,.92-3.11,5.27-3.25,5.97-.14,.69,.39,3.04,.78,3.54,.11-.09,.34-.33,.5-.51,.5-.54,1.12-1.22,1.99-1.22,1.22,0,3.96,.7,4.07,.73,.27,.07,.43,.34,.36,.61s-.34,.43-.61,.36c-.03,0-2.73-.7-3.82-.7-.43,0-.86,.47-1.25,.89-.4,.44-.79,.86-1.29,.86Zm.11-.96h0Z"/></g><g class="cls-4"><path class="cls-3" d="M300.63,212.78c-.15,0-.29-.07-.39-.19-.38-.48-1.09-1.07-1.38-.92-.64,.32-3.32,1.33-4.73,.47-1.37-.83-1.82-4.07-1.47-5.31,.07-.23,.15-.49,.25-.75,.35-1,.74-2.13,.18-2.78-.86-1.02-4.15-6.21-4.77-8.7-.44-1.78-.79-2.61-.91-2.87l-1.65-1.18c-.08-.06-.14-.13-.17-.22-.07-.17-1.7-4.18-1.79-5.92-.06-1.19-.3-2.66-.42-3.36h-2.33c-.28,0-.5-.22-.5-.5v-2.83c0-.14,.06-.28,.17-.38,.69-.6,1.82-1.79,1.92-2.45,.17-1.09,.33-2.09,.33-2.09,.03-.2,.18-.35,.37-.4l1.53-.38c-.33-1.62-.8-4.53-.13-5.36,.59-.74,2.77-3.33,3.25-3.9l.31-2.36c.03-.21,.19-.38,.4-.42l7.09-1.42-.41-30.58c0-.13,.05-.26,.14-.36,.09-.1,.22-.15,.36-.15h5.81l-3.8-72.56-.74-3.68c-.02-.09,0-.19,.03-.28,.59-1.48,1.42-4.15,1.15-5-.07-.23-.18-.5-.3-.8-.59-1.45-1.47-3.65-.61-6.63,.08-.27,.36-.42,.62-.34,.27,.08,.42,.35,.34,.62-.76,2.64,.01,4.57,.58,5.97,.13,.33,.25,.62,.33,.88,.42,1.36-.81,4.72-1.13,5.53l.72,3.61,3.84,73.16c0,.14-.04,.27-.14,.37-.09,.1-.23,.16-.36,.16h-5.83l.41,30.49c0,.24-.17,.45-.4,.5l-7.15,1.43-.29,2.15c-.01,.09-.05,.18-.11,.26,0,0-2.66,3.16-3.33,3.99-.27,.36-.07,2.7,.43,5,.06,.26-.1,.53-.37,.59l-1.68,.42c-.06,.38-.17,1.05-.28,1.75-.16,1.06-1.56,2.42-2.08,2.9v2.11h2.25c.24,0,.45,.17,.49,.41,.02,.09,.42,2.22,.51,3.9,.06,1.25,1.17,4.24,1.66,5.45l1.63,1.17c.06,.04,.11,.1,.15,.17,.02,.03,.45,.83,1.05,3.21,.57,2.26,3.7,7.27,4.56,8.3,.92,1.09,.39,2.63,0,3.76-.09,.25-.17,.49-.23,.7-.31,1.1,.23,3.69,1.03,4.18,.81,.5,2.88-.07,3.77-.51,1.17-.58,2.47,1.01,2.61,1.2,.17,.22,.13,.53-.08,.7-.09,.07-.2,.11-.31,.11Z"/></g><g class="cls-4"><path class="cls-3" d="M301.45,113.81c-.27,0-.49-.21-.5-.48,0-.28,.21-.51,.48-.52l82.99-2.97c.25-.02,.51,.21,.52,.48,0,.28-.21,.51-.48,.52l-82.99,2.97s-.01,0-.02,0Z"/></g><g class="cls-4"><path class="cls-3" d="M363.36,115.02c-.39,0-.79-.09-1.18-.26-1.15-.53-3.19-2.93-3.42-3.2-.18-.21-.15-.53,.06-.7,.21-.18,.53-.15,.71,.06,.58,.69,2.27,2.56,3.08,2.93,.46,.21,.96,.23,1.37,.04,.5-.23,.88-.77,1.1-1.56,.6-2.16,2.58-3.92,3.47-4.25,.3-.11,.74-1.12,1-1.72,.13-.31,.26-.6,.39-.87,.54-1.07,4.67-3.72,5.49-4.24,.23-.15,.54-.08,.69,.16,.15,.23,.08,.54-.16,.69-2.31,1.46-4.86,3.3-5.13,3.85-.12,.25-.25,.53-.37,.82-.45,1.03-.87,2-1.57,2.26-.5,.19-2.31,1.62-2.86,3.58-.38,1.36-1.11,1.94-1.65,2.19-.32,.15-.67,.22-1.03,.22Z"/></g><g class="cls-4"><path class="cls-3" d="M184.59,240.67c-.2,0-.4-.13-.48-.33-.31-.81,.63-2.16,2.24-4.08l.25-.31c.12-.18,.11-1.03,.11-1.48-.01-.99,0-1.57,.32-1.89,.05-.05,.24-.25,.52-.55,5.15-5.44,7.82-8.02,8.65-8.34,.98-.38,2.14,.03,2.98,.34,.3,.11,.69,.29,.84,.25,.34-.06,1.18-.6,1.67-.96,.11-.08,.26-.12,.4-.09,.14,.03,.26,.12,.33,.24,1.39,2.37,2.94,4.08,3.37,3.94,1-.3,4.51-5.18,5.29-7.36,.73-2.02,.39-4.74,.39-4.77-.01-.11,.01-.23,.07-.33,.11-.17,2.66-4.31,3.65-5.74,.94-1.36,2.03-5.2,2.04-5.24,.05-.17,.18-.3,.35-.35l2.8-.77c.4-1.12,2.06-5.81,2.45-7.95,.4-2.26,1.86-2.93,3.41-3.64,.36-.17,.74-.34,1.13-.54,1.32-.7,1.44-1.7,1.55-2.66,.04-.31,.07-.6,.14-.86,.15-.57-2.16-2.59-3.91-3.24-1.85-.68-3.99-3.68-4.11-6.9-.1-2.82-2.29-6.21-2.31-6.25-.13-.21-.1-.48,.08-.64l2.61-2.35v-3.44c0-.15,.07-.29,.18-.39l13.05-10.64,1.49-23.78c0-.11,.05-.21,.11-.29l3-3.62-5.88-6.68c-.07-.08-.11-.18-.12-.28l-1.29-13.72c-.03-.27,.18-.52,.45-.54,.27-.02,.52,.18,.54,.45l1.27,13.56,6.06,6.88c.16,.19,.17,.46,0,.65l-3.17,3.82-1.49,23.84c0,.14-.08,.27-.18,.36l-13.04,10.63v3.43c0,.14-.06,.28-.17,.37l-2.47,2.22c.59,1,2.15,3.83,2.24,6.39,.11,2.97,2.08,5.49,3.45,5.99,1.54,.57,4.94,2.89,4.53,4.43-.06,.21-.08,.46-.11,.72-.12,1.05-.29,2.49-2.08,3.43-.4,.21-.8,.39-1.18,.57-1.47,.67-2.53,1.16-2.84,2.91-.45,2.51-2.49,8.12-2.58,8.36-.06,.15-.18,.27-.34,.31l-2.78,.76c-.28,.94-1.21,3.98-2.1,5.26-.88,1.27-3.06,4.79-3.54,5.55,.07,.68,.24,3.09-.46,5.05-.72,2.01-4.33,7.49-5.94,7.98-1.35,.41-3.25-2.31-4.24-3.93-.47,.32-1.17,.74-1.65,.83-.36,.06-.8-.09-1.35-.29-.73-.26-1.65-.59-2.28-.35-.37,.15-1.94,1.39-8.29,8.1-.29,.31-.48,.51-.54,.57-.04,.11-.03,.75-.03,1.17,0,1.05,0,1.72-.32,2.12-.06,.08-.15,.19-.27,.33-1.86,2.21-2.09,2.88-2.07,3.09,.1,.26-.03,.54-.29,.64-.06,.02-.12,.03-.17,.03Z"/></g><g class="cls-4"><path class="cls-3" d="M143.45,227.87c-.27,0-.5-.22-.5-.5,0-.24-.06-5.95,0-7.34,.03-.71-.2-1.22-.44-1.77-.18-.4-.36-.81-.44-1.3-.17-1.09-.17-4.47,0-6.13,.19-1.81,2.19-3.65,3.41-4.38,.61-.36,.61-1.09,.56-2-.01-.19-.02-.36-.02-.52,0-.65,.65-1.42,1.72-2.62,.46-.51,.93-1.04,1.09-1.34,.16-.31,.06-.77-.04-1.22-.12-.54-.25-1.11,.1-1.53,.22-.26,.41-1.51,.41-2.68,0-.97-.14-2.43-.29-2.7-.3-.36-.26-.93-.18-1.79,.03-.34,.06-.74,.08-1.2,.05-1.38,.48-2.49,.82-3.39l.1-.27c.06-.16,.05-.44,.04-.73-.04-.96-.09-2.4,1.82-3.68,1.48-.99,1.71-2.36,1.89-3.46,.08-.5,.15-.94,.33-1.29,.61-1.21,3.37-2.72,5.1-2.78,1.58-.05,6.26-.49,6.3-.5,.16,0,.31,.04,.41,.16,0,0,.65,.7,1.23,1.17,.31,.25,1.91,.59,2.77,.77,.6,.13,1.07,.22,1.31,.31,.61,.22,2.84,2.25,3.76,3.1,1.93-.36,7.02-1.3,7.46-1.3,.34,0,.74,.27,2.15,1.34,.72,.55,1.72,1.3,2.06,1.41,.72,.24,4.13,.31,5.09,.15,.65-.11,3.02-1.58,4.36-2.48,.08-.05,.17-.08,.27-.08,.46,0,11.29-.17,12.17-.17,.47,0,.96,.28,1.52,.6,.8,.46,1.71,.98,2.67,.8,1.07-.19,2.45-1.87,3.37-2.98,.52-.63,.93-1.12,1.26-1.37,1.01-.76,3.54-.58,3.83-.55,.06,0,.12,.02,.17,.04,.55,.26,3.33,1.56,3.8,1.98,.19,.16,1.27,.44,2.3,.6,.09,.01,.17,.05,.24,.11,.47,.39,2.04,1.73,2.23,2.55l.1,.49c.2,.96,.74,3.52,1.19,4.09,.12,.15,.29,.35,.5,.58,.9,1.01,2.25,2.53,2.54,4.08,.2,1.06,.11,2.27,.02,3.35-.06,.75-.11,1.45-.03,1.79,.16,.67,2.17,5.74,3.48,8.98,.07,.17,.04,.36-.08,.5-.12,.14-.3,.21-.48,.17-2.81-.54-6.02-.99-6.54-.84-1.73,.51-3.47,1.35-3.59,1.74,.05,.76,.73,3.31,1.76,4.45,1.12,1.23,4.53,4.64,5.83,5.67,1.59,1.26,3.38,2.94,3.13,4.79-.23,1.69-1.17,4.58-1.21,4.7-.09,.26-.37,.41-.63,.32-.26-.09-.41-.37-.32-.63,0-.03,.96-2.92,1.17-4.52,.2-1.53-1.95-3.23-2.76-3.88-1.33-1.06-4.81-4.52-5.95-5.78-1.18-1.3-1.95-4.04-2.02-5.08-.08-1.3,2.98-2.34,4.3-2.73,.83-.25,4.22,.31,6.12,.66-.87-2.17-3-7.48-3.18-8.28-.12-.49-.06-1.24,0-2.1,.08-1.01,.16-2.16,0-3.09-.24-1.28-1.53-2.73-2.31-3.6-.22-.25-.41-.46-.54-.63-.55-.69-1-2.69-1.38-4.5l-.1-.47c-.07-.32-.96-1.23-1.78-1.92-.74-.12-2.2-.41-2.67-.82-.24-.21-1.94-1.06-3.48-1.78-.94-.06-2.54-.03-3.06,.36-.23,.18-.65,.68-1.08,1.21-1.13,1.37-2.53,3.07-3.96,3.33-1.32,.24-2.49-.43-3.34-.91-.38-.22-.82-.47-1.02-.47-.82,0-10.68,.14-12.01,.16-.82,.55-3.63,2.39-4.63,2.55-1.02,.17-4.64,.12-5.57-.18-.46-.16-1.23-.72-2.35-1.56-.6-.45-1.42-1.07-1.63-1.14-.3,.03-4.74,.83-7.44,1.33-.16,.03-.32-.02-.43-.12-1.46-1.36-3.26-2.92-3.61-3.06-.17-.06-.65-.16-1.17-.27-1.58-.33-2.73-.6-3.2-.98-.45-.37-.91-.83-1.16-1.09-1,.09-4.7,.43-6.12,.48-1.44,.05-3.83,1.41-4.24,2.22-.11,.22-.17,.58-.24,1.01-.19,1.15-.47,2.9-2.32,4.13-1.44,.96-1.41,1.94-1.38,2.81,.01,.4,.03,.78-.1,1.12l-.1,.27c-.31,.82-.71,1.85-.75,3.07-.02,.47-.05,.89-.08,1.24-.04,.46-.08,.97-.02,1.1,.49,.58,.5,3.28,.5,3.31,0,.43-.03,2.59-.64,3.32-.03,.08,.05,.43,.11,.67,.13,.57,.29,1.28-.05,1.92-.22,.41-.69,.93-1.23,1.54-.51,.57-1.45,1.62-1.46,1.95,0,.13,0,.29,.02,.45,.05,.88,.14,2.21-1.04,2.92-1.1,.66-2.79,2.27-2.93,3.62-.16,1.56-.16,4.86,0,5.87,.06,.36,.21,.69,.37,1.05,.27,.59,.57,1.27,.53,2.22-.05,1.36,0,7.23,0,7.29,0,.28-.22,.5-.5,.5h0Z"/></g><g class="cls-4"><path class="cls-3" d="M211.39,102.89c-.18,0-.35-.1-.44-.27-.85-1.62-2.01-3.49-2.39-3.68-.4-.13-.74-.59-1.2-1.21-.63-.86-1.38-1.92-2.25-1.84-1.99,.19-5.42-1.3-5.71-3.43-.2-1.46-.1-2.7-.03-3.22l-6.49-6.49c-.18-.18-.2-.48-.03-.67,1.18-1.41,4.31-5.2,4.71-5.85,.29-.48,.28-2.55,.18-3.87-.02-.25,.15-.47,.39-.52,0,0,.93-.23,1.19-.9,.18-.46,.01-1.08-.5-1.84-1.91-2.82-2.82-4.47-2.86-4.54-.04-.08-.06-.16-.06-.25,.08-3.76,.05-7.95-.12-8.45-.39-.78-.4-2.33,0-3.31,.22-.85-1.08-9.46-1.44-11.39-.24-1.28-.93-2.77-1.89-3.03-1.36-.36-3.13-2.34-3.33-2.57-.09-.1-.13-.23-.12-.36,0-.03,.12-2.68-1.47-3.44-2.05-.98-3.59-5.76-3.76-6.3-.03-.1-.03-.21,0-.3,.13-.41,1.33-4.01,2.58-4.99,1.44-1.13,3.2-2.95,3.4-4.34,.11-.77-.01-1.38-.12-1.92-.13-.65-.25-1.25,.1-1.85,.06-.11,.39-.9,.35-5.87v-.21c0-.53,.9-2.06,1.66-3.24,.15-.23,.46-.3,.69-.15,.23,.15,.3,.46,.15,.69-.69,1.08-1.46,2.43-1.5,2.73v.18c.04,4.93-.26,6.01-.49,6.39-.15,.25-.1,.56,.02,1.14,.12,.59,.27,1.32,.13,2.26-.3,2.12-2.96,4.35-3.77,4.99-.82,.64-1.82,3.23-2.2,4.36,.47,1.46,1.83,4.9,3.19,5.55,1.89,.91,2.04,3.42,2.04,4.18,.58,.63,1.87,1.9,2.71,2.12,1.48,.39,2.33,2.3,2.61,3.81,.02,.1,1.83,10.83,1.39,11.94-.28,.7-.29,1.96-.02,2.51,.34,.69,.27,6.25,.22,8.76,.24,.42,1.15,1.98,2.75,4.35,.71,1.05,.91,1.98,.6,2.77-.31,.77-1.03,1.18-1.49,1.36,.06,1.01,.13,3.28-.35,4.07-.45,.74-3.48,4.4-4.5,5.63l6.34,6.34c.11,.11,.17,.28,.14,.44,0,.01-.23,1.45,0,3.18,.21,1.5,3.08,2.71,4.62,2.57,1.39-.15,2.42,1.24,3.15,2.24,.25,.34,.58,.8,.73,.87,.81,.27,2.19,2.72,2.94,4.16,.13,.24,.03,.55-.21,.67-.07,.04-.15,.06-.23,.06Z"/></g><g class="cls-4"><path class="cls-3" d="M196.22,53.22c-.23,0-.44-.16-.49-.39-.06-.27,.11-.54,.38-.6,4.44-.99,4.83-4.26,5.02-5.83,.04-.29,.07-.52,.11-.66,.07-.24-.01-.88-.09-1.44-.14-1.07-.29-2.17,.15-2.86,.39-.61,2.23-1.55,5.21-3.01,1.3-.64,2.77-1.36,3.02-1.59,.39-.36,.53-.74,.08-1.66-.47-.93-.12-3.26-.05-3.72,.04-.27,.3-.46,.57-.41,.27,.04,.46,.3,.41,.57-.16,1.01-.28,2.64-.05,3.11,.38,.76,.76,1.88-.3,2.84-.34,.31-1.4,.84-3.25,1.75-1.68,.83-4.5,2.21-4.81,2.65-.24,.38-.1,1.42,0,2.18,.1,.75,.19,1.41,.05,1.86-.03,.1-.05,.27-.07,.49-.18,1.52-.66,5.54-5.8,6.69-.04,0-.07,.01-.11,.01Z"/></g><g class="cls-4"><path class="cls-3" d="M150.94,135.15c-1.45,0-3.04-.76-3.49-3-.34-1.71-.18-3.04-.07-3.65l-4.45-3.04c-.71,.07-3.09,.18-4.57-1.4-.46-.5-.86-1.03-1.31-1.65-1.09-1.48-2.58-3.51-6.19-6.41-5.05-4.06-58.9-46.79-59.44-47.22-.14-.11-.21-.28-.19-.45l1.17-9.25c.02-.13,.08-.25,.19-.33l7.17-5.67c.09-.07,.2-.11,.31-.11h1.05c.89-.45,3.3-1.66,3.97-1.75,.46-.06,.89,.13,1.28,.29,.25,.1,.58,.24,.71,.2,.08-.03,.31-.24,.46-.38,.55-.51,1.48-1.38,2.5-.61,.96,.72,1.97,1.3,2.94,.72,1.36-.81,18.06-8.87,18.75-9.12,.22-.11,.63-1.06,.86-1.98,.04-.17,.17-.31,.34-.36,.01,0,1.3-.42,3.28-1.85,1.98-1.42,7.53-2.04,8.71-2.16,.36-.45,1.38-1.73,1.84-2.39,.01-.02,.02-.06,0-.12-.13-.62-1.39-1.69-1.91-2-.99-.59-.66-4.94-.42-5.88,.31-1.25,.15-5.6-.01-6.99-.16-1.32-.94-2.89-1.3-3.32-.49-.59-.53-2.03-.53-2.46,0-.28,.22-.5,.5-.5h0c.28,0,.5,.22,.5,.5,0,.71,.12,1.61,.3,1.82,.45,.54,1.35,2.29,1.53,3.85,.17,1.43,.35,5.91-.01,7.35-.34,1.35-.27,4.41,.03,4.83,.26,.14,2.06,1.45,2.31,2.6,.09,.42-.04,.72-.16,.9-.58,.84-1.95,2.54-2.01,2.61-.08,.11-.21,.17-.35,.18-.06,0-6.48,.59-8.43,1.99-1.61,1.16-2.78,1.69-3.29,1.89-.21,.79-.67,2.15-1.41,2.42-.63,.24-17.37,8.32-18.58,9.04-1.67,1-3.34-.24-4.06-.78-.28-.21-.54-.09-1.22,.54-.29,.27-.54,.5-.83,.59-.48,.16-.97-.05-1.41-.23-.27-.12-.59-.25-.77-.22-.36,.04-2.22,.92-3.75,1.7-.07,.04-.15,.06-.23,.06h-.99l-6.87,5.43-1.11,8.77c3.79,3.01,54.34,43.12,59.23,47.05,3.71,2.98,5.25,5.07,6.37,6.6,.44,.6,.82,1.11,1.24,1.56,1.35,1.45,3.87,1.07,3.89,1.07,.12-.02,.25,0,.36,.08l4.89,3.33c.18,.12,.26,.34,.2,.55,0,.01-.4,1.48,0,3.54,.46,2.29,2.25,2.27,2.99,2.16,1.34-.21,14.67-2.67,16.27-2.97l3.56-3.66s.06-.05,.09-.07l39.78-25.44c.13-.08,.28-.1,.42-.05,.04,.01,4.12,1.33,5.86,1.77,1.65,.41,6.1,3.2,7.16,3.86l14.21-5.62c.13-.05,.28-.05,.41,.02l56.98,28.56c.25,.12,.35,.42,.22,.67-.12,.25-.43,.35-.67,.22l-56.79-28.46-14.24,5.63c-.15,.06-.32,.04-.45-.04-1.5-.96-5.68-3.52-7.07-3.87-1.55-.39-4.8-1.43-5.7-1.71l-39.53,25.29-3.63,3.74c-.07,.07-.17,.12-.27,.14-.61,.11-15.02,2.78-16.46,3-.21,.03-.42,.05-.63,.05Zm-25.79-98.68h0Z"/></g><g class="cls-4"><path class="cls-3" d="M72.02,66.56s-.03,0-.04,0l-29.5-2.35c-.28-.02-.48-.26-.46-.54,.02-.28,.27-.48,.54-.46l29.5,2.35c.28,.02,.48,.26,.46,.54-.02,.26-.24,.46-.5,.46Z"/></g><g class="cls-4"><path class="cls-3" d="M34.39,111.72s-.02,0-.03,0l-24.54-1.67c-.28-.02-.48-.26-.46-.53,.02-.28,.25-.48,.53-.46l23.99,1.63c-.08-2.2-.23-10.05,1.45-12.34,1.74-2.37,8.16-2.79,10.04-2.86l2.04-17.9c.03-.26,.23-.46,.52-.44l21.8,1.06,1.51-9.89c.04-.27,.29-.46,.57-.42,.27,.04,.46,.3,.42,.57l-1.58,10.33c-.04,.25-.23,.45-.52,.42l-21.78-1.06-2.03,17.87c-.03,.25-.24,.44-.49,.44-2.23,.05-8.31,.58-9.69,2.46-1.42,1.93-1.37,9.51-1.24,12.26,0,.14-.05,.28-.15,.38-.09,.09-.22,.14-.35,.14Z"/></g><g class="cls-4"><path class="cls-3" d="M66.98,197.39c-.27,0-.49-.21-.5-.48-.05-1.13-2.44-1.94-3.16-2.03-.7-.09-1.23-.87-1.49-1.33h-1.45c-.15,0-.29-.07-.38-.18-.1-.11-.14-.26-.11-.41l.62-3.51-1.76-1.99c-.08-.09-.12-.2-.12-.31-.04-1.13-.3-2.53-.64-2.79-.54-.42-.75-1.26-.93-2.01-.06-.25-.15-.6-.23-.79-.45,.18-1.54,.98-2.22,1.48-.55,.4-1.09,.8-1.54,1.09-1.4,.91-3.83-.47-4.74-1.05l-2.21,1.84c-.1,.09-.23,.12-.37,.11-.13-.01-.25-.08-.34-.18-.64-.77-1.52-1.4-1.74-1.24-1.03,.72-2.99-.45-3.56-.83-.14-.09-.22-.24-.23-.4l-.08-2.33s0-.1,.02-.15c0-.02,.59-2.18,1.08-4.32,.4-1.74-2.06-3.18-2.75-3.41-.73-.24-.85-1.52-.95-4.38-.02-.65-.05-1.47-.1-1.64-.06-.09-.33-.54,.47-3.74,.03-.11,.09-.21,.19-.28,1.19-.89,1.34-3.42,1.3-4.33,0-.21,.12-.41,.31-.49l3.92-1.58c.19-.08,.42-.03,.56,.13l3.19,3.56,1.22-1.54c.11-.14,.29-.21,.46-.18l5.72,.81,3.09-2.14c.19-.13,.46-.12,.63,.05l1.36,1.29,25.33,.82,3.72-4.08-3.13-1.46c-.17-.08-.28-.25-.29-.44l-1.92-64.53c0-.13,.05-.27,.14-.36,.09-.1,.22-.15,.36-.15h12.74c.28,0,.5,.22,.5,.5s-.22,.5-.5,.5h-12.23l1.89,63.71,3.47,1.62c.14,.07,.25,.2,.28,.36,.03,.16-.01,.32-.12,.43l-4.33,4.75c-.1,.11-.23,.16-.39,.16l-25.75-.83c-.12,0-.24-.05-.33-.14l-1.21-1.14-2.92,2.02c-.1,.07-.24,.1-.35,.08l-5.63-.79-1.41,1.78c-.09,.12-.23,.18-.38,.19-.16,.01-.29-.06-.39-.17l-3.35-3.74-3.27,1.32c0,.95-.16,3.49-1.56,4.7-.3,1.22-.56,2.64-.49,2.94,.11,.17,.14,.56,.19,2,.03,1,.1,3.05,.35,3.5,.84,.32,3.92,2.01,3.33,4.56-.45,1.93-.96,3.88-1.07,4.28l.07,1.99c.86,.52,1.93,.92,2.22,.71,.92-.64,2.14,.41,2.75,1.05l2.13-1.77c.17-.14,.42-.15,.61-.03,1.09,.76,3.12,1.77,3.94,1.24,.43-.28,.96-.67,1.49-1.06,1.92-1.41,2.7-1.92,3.26-1.64,.44,.22,.58,.79,.76,1.51,.13,.53,.31,1.25,.58,1.46,.8,.63,.98,2.64,1.02,3.36l1.8,2.03c.1,.11,.14,.27,.12,.42l-.56,3.16h1.15c.19,0,.37,.11,.45,.29,.22,.47,.64,1.02,.86,1.05,.61,.08,3.94,.95,4.03,2.97,.01,.28-.2,.51-.48,.52,0,0-.02,0-.02,0Z"/></g><g class="cls-4"><path class="cls-3" d="M38.06,163.05c-.08,0-.16-.02-.24-.06-.15-.08-3.67-1.97-5.7-4-1.8-1.8-2.85-5.12-3.29-6.54-.07-.21-.12-.38-.15-.47-.06-.15-.34-.16-.92-.12-.18,.01-.36,.02-.53,.02-1.02,0-3.1-1.46-3.64-3.18-.18-.57-.68-.61-1.81-.47-.54,.06-1,.12-1.35-.06-.61-.31-2.88-.61-3.65,.29-.1,.11-.23,.17-.38,.17-.17,0-4.05,0-5.24-.17-1.2-.17-2.23-.16-2.85,1.71-.09,.26-.37,.41-.63,.32-.26-.09-.4-.37-.32-.63,.94-2.82,2.97-2.53,3.94-2.39,.97,.14,4.05,.16,4.88,.16,1.3-1.21,4-.71,4.68-.36,.11,.04,.52,0,.79-.04,.91-.11,2.42-.28,2.88,1.17,.44,1.38,2.15,2.48,2.69,2.48,.15,0,.31-.01,.46-.02,.67-.05,1.59-.11,1.92,.76,.04,.1,.1,.28,.17,.52,.39,1.23,1.42,4.51,3.05,6.14,1.92,1.92,5.43,3.81,5.47,3.83,.24,.13,.33,.43,.2,.68-.09,.17-.26,.26-.44,.26Z"/></g><g class="cls-4"><path class="cls-3" d="M34.22,181.39s-.09,0-.14-.02c-.1-.03-10.1-2.92-12.24-3.5-1.88-.5-7.31-.08-8.26,0l-2.38,1.83c-.1,.08-.22,.12-.36,.1l-7.89-.86c-.27-.03-.47-.28-.44-.55,.03-.27,.28-.47,.55-.44l7.69,.84,2.34-1.79c.08-.06,.17-.09,.26-.1,.27-.02,6.53-.58,8.76,.02,2.01,.54,10.94,3.12,12.13,3.46,.58-.14,2.88-.67,6.05-.81,.28-.04,.51,.2,.52,.48,.01,.28-.2,.51-.48,.52-3.48,.16-5.95,.81-5.98,.82-.04,.01-.09,.02-.13,.02Z"/></g><g class="cls-4"><path class="cls-3" d="M16.22,191.84c-.22,0-.42-.15-.48-.37-.01-.04-.28-1.09,0-2.35,.25-1.19,4.39-3.04,7.08-4.13l-.37-3.12c-.02-.14,.03-.29,.12-.39l.7-.77v-2.81c0-.28,.22-.5,.5-.5s.5,.22,.5,.5v3c0,.12-.05,.24-.13,.33l-.68,.75,.39,3.27c.03,.22-.1,.44-.31,.52-3.1,1.24-6.58,2.97-6.83,3.57-.22,1.01,0,1.87,0,1.88,.07,.27-.09,.54-.36,.61-.04,.01-.08,.02-.13,.02Z"/></g><g class="cls-4"><path class="cls-3" d="M7.65,174.33c-1.32,0-2.94-.05-3.4-.06-.28,0-.49-.24-.48-.52,0-.28,.21-.48,.52-.48,2.15,.07,4.58,.09,4.91,.01,.19-.05,.77-.53,1.11-.81,.75-.62,1.13-.92,1.5-.92,.09,0,.29-.02,.58-.04,2.03-.14,3.39-.18,3.94,.08,.25,.12,1.37,.31,2.26,.47,1.76,.3,2.87,.51,3.32,.78,.12,.07,.42,.05,.69-.09,.19-.1,.25-.21,.25-.23,0-.01-.04-.1-.2-.21-.56-.39-1.66-.68-2.73-.96-1.1-.29-2.14-.56-2.73-.97-.99-.68-2.34-.78-3.71-.28-1.55,.57-3.85,1.2-5.21,1.11-1.34-.09-2.68-.81-2.73-.84-.24-.13-.33-.44-.2-.68s.44-.33,.68-.2c.01,0,1.2,.64,2.32,.72,1.13,.08,3.22-.47,4.79-1.05,1.69-.62,3.37-.48,4.62,.39,.45,.31,1.45,.58,2.42,.83,1.15,.3,2.35,.62,3.05,1.11,.76,.53,.72,1.2,.45,1.62-.41,.64-1.55,1.03-2.28,.59-.32-.2-1.92-.47-2.97-.65-1.33-.23-2.17-.38-2.53-.55-.28-.14-1.44-.13-3.44,.01-.32,.02-.55,.04-.65,.04-.08,.04-.55,.43-.87,.69-.69,.57-1.14,.93-1.52,1.01-.24,.05-.94,.07-1.77,.07Z"/></g><g class="cls-4"><path class="cls-3" d="M56.43,220.86c-1.05,0-2.08-.79-2.48-1.13h-1.23c-.27,0-.49-.21-.5-.47,0-.07-.08-1.69,.6-4.48,.13-.54,.05-1-.26-1.4-.79-1.04-2.77-1.39-3.01-1.4h-3.24c-.1,0-.2-.03-.29-.09l-1.92-1.33c-.23-.16-.28-.47-.12-.69,0,0,.75-1.09,1.17-1.67,.12-.4-.65-2.39-.9-3.04-.11-.29-.2-.52-.25-.68-.29-.89-1.59-3.42-2.05-3.66-.07,0-.39-.06-.79-.15-1.11-.24-4.07-.88-4.88-.28-1.16,.85-2.89,.19-3.66-.18l-4.58,5.84c-.09,.12-.24,.19-.39,.19h-1.58c-.28,0-.5-.22-.5-.5s.22-.5,.5-.5h1.34l4.68-5.98c.15-.2,.43-.25,.65-.12,.55,.32,2.15,1.03,2.95,.44,1.08-.8,3.5-.36,5.69,.11,.35,.08,.61,.13,.74,.15,1.21,.12,2.83,4.28,2.84,4.32,.05,.14,.13,.37,.24,.63,.84,2.18,1.19,3.4,.78,3.98-.25,.35-.62,.88-.88,1.25l1.38,.96h3.09c.3,0,2.67,.35,3.77,1.75,.51,.65,.67,1.44,.47,2.28-.43,1.78-.54,3.07-.57,3.72h.91c.13,0,.25,.05,.34,.14,.34,.32,1.46,1.17,2.19,.97,.91-.26,2.11-2.41,2.14-2.86,0-.38,.24-.52,.34-.57,.35-.15,.62,.1,.83,.31,.55,.53,.66,.47,.81,.32,.84-.84,2.07-3.03,2.3-3.66,.04-.22-.48-1.03-1.06-1.65-.13-.14-.17-.33-.11-.51,.06-.18,.21-.3,.4-.33l2.99-.44v-7.02c-1.08-1.07-2.41-3.43-.56-5.78,.75-.96,1.68-1.44,2.75-1.45h.01c1.8,0,3.37,1.37,3.87,1.95,.43-.15,1.57-1.34,2.52-2.65,.07-.09,.16-.16,.27-.19,.36-.1,3.55-.98,4.55,.54,1.11,1.66,1.59,1.82,1.71,1.83,.67-.71,1.06-1.79,1.07-1.8,.07-.21,.27-.36,.49-.33l1.75,.08c.28,.01,.49,.25,.48,.52-.01,.28-.25,.52-.52,.48l-1.39-.07c-.19,.43-.55,1.18-1.04,1.73-.24,.27-.55,.4-.9,.38-.7-.05-1.46-.75-2.48-2.27-.45-.67-2.3-.43-3.28-.17-.72,.98-2.26,2.91-3.26,2.94-.27,.04-.51-.1-.68-.31-.41-.52-1.78-1.65-3.15-1.65h0c-.76,0-1.41,.35-1.97,1.07-1.84,2.34,.5,4.48,.61,4.57,.11,.09,.17,.23,.17,.37v7.67c0,.25-.18,.46-.43,.5l-2.53,.37c.46,.61,.89,1.39,.67,1.98-.26,.68-1.54,3.02-2.53,4.01-.71,.71-1.44,.34-1.89-.02-.45,1.09-1.57,2.75-2.66,3.06-.17,.05-.34,.07-.51,.07Z"/></g><g class="cls-4"><path class="cls-3" d="M38.56,223.61c-.07,0-.14-.01-.21-.04-.25-.12-.36-.41-.25-.66,.27-.59,1.21-2.55,1.96-2.98,.39-.22,1.25-1.43,1.74-2.21,.05-.08,.12-.14,.2-.18,.69-.35,1.75-1.04,1.93-1.49,.33-.83,1.92-4.75,1.92-4.75l.93,.38s-1.58,3.91-1.92,4.75c-.35,.87-1.77,1.68-2.28,1.95-.33,.52-1.34,2.05-2.02,2.43-.31,.18-1.05,1.45-1.54,2.53-.08,.18-.27,.29-.46,.29Z"/></g><g class="cls-4"><path class="cls-3" d="M66.98,242.41h-.01c-.28,0-.49-.24-.49-.51,0-.21,.17-5.26,.75-7.86,.42-1.85-.96-2.84-1.88-3.49-.19-.14-.35-.25-.47-.35-.31-.27-.46-.68-.61-1.11-.29-.79-.61-1.68-1.96-2.12-1-.32-1.67-.82-2-1.47-.29-.58-.22-1.11-.17-1.32v-6.52c0-.28,.22-.5,.5-.5s.5,.22,.5,.5v6.59c0,.06,0,.11-.03,.16-.03,.1-.26,1.05,1.5,1.61,1.82,.58,2.29,1.88,2.59,2.73,.11,.29,.22,.6,.33,.7,.1,.08,.23,.18,.39,.29,.92,.66,2.83,2.03,2.27,4.53-.57,2.51-.73,7.62-.73,7.67,0,.27-.23,.49-.5,.49Z"/></g><g class="cls-4"><path class="cls-3" d="M101.16,237.67s-.06,0-.1,0c-.27-.05-.45-.32-.39-.59,.19-.98,.23-3.11-.54-3.81-1.29-1.18-2.04-5.5-2.24-6.79-.32-2.1,1.6-4.1,2.18-4.64l.15-1.97c0-.08,.03-.15,.07-.21,.02-.03,1.75-3.01,2.9-5.3,.63-1.25-.01-3.56-.48-5.24-.43-1.54-.62-2.3-.33-2.79,.25-.42,.15-1.52-.01-2.27l-4.51-3.07-1.71,1.55c-.09,.08-.2,.13-.32,.13l-2.32,.08-1.53,1.38c-.16,.14-.4,.17-.58,.06-2.14-1.22-4.98-4.99-5.67-5.93h-2c-.28,0-.5-.22-.5-.5v-5.17c0-.13,.05-.25,.14-.35l1.04-1.08c.14-1.58,.51-4.88,1.11-5.57,.3-.34,.81-.43,1.4-.54,1.07-.2,2.29-.42,2.57-1.97,.26-1.42,.69-2.26,1.31-2.57,.13-.06,.25-.1,.36-.11,.47-1.14,1.89-4.49,2.74-5.26,.73-.66,1.78-.42,2.62-.23,.41,.1,.92,.21,1.12,.13,.57-.23,1.29-1.13,1.53-1.46,.07-.1,.17-.17,.29-.2l2.26-.54,16.68-10.02c.08-.05,.17-.07,.26-.07h8.92c.17,0,.32,.08,.42,.22,.09,.14,.11,.32,.04,.47-.84,1.97-1.74,4.37-1.72,4.8,.24,.79,2.96,5.67,4.13,5.67h.02c1.13-.09,1.5,1.02,1.8,1.98,.32,1,.67,2.14,1.85,2.69,2.53,1.19,5.26,2.19,5.29,2.2,.17,.06,.29,.21,.32,.39l.78,5.04,3.32-2.77c.16-.14,.4-.15,.58-.05l3.08,1.83c.08,.05,.15,.12,.19,.21,.65,1.3,1.58,2.83,1.96,3.04,.24,.13,.33,.44,.2,.68-.13,.24-.44,.33-.68,.2-.78-.43-1.89-2.51-2.3-3.33l-2.65-1.58-3.73,3.11c-.14,.12-.33,.15-.5,.08-.17-.06-.29-.21-.32-.39l-.87-5.63c-.77-.29-3-1.14-5.1-2.13-1.57-.74-2.04-2.22-2.38-3.3-.32-1.01-.47-1.27-.8-1.28-.02,0-.04,0-.06,0-2.18,0-5.01-6.09-5.11-6.45-.13-.46,.36-2.05,1.48-4.72h-8.03l-16.63,9.98s-.09,.05-.14,.06l-2.15,.51c-.29,.39-1.07,1.34-1.86,1.66-.49,.2-1.09,.06-1.72-.09-.68-.16-1.38-.32-1.72,0-.61,.55-1.93,3.5-2.62,5.23-.05,.13-.16,.23-.29,.28s-.28,.04-.4-.02c-.05,0-.49,.29-.78,1.89-.41,2.22-2.26,2.57-3.37,2.77-.29,.05-.74,.14-.83,.22-.29,.37-.68,2.97-.88,5.17,0,.11-.06,.22-.14,.3l-1.03,1.07v4.47h1.75c.16,0,.31,.08,.41,.21,.03,.04,3.01,4.19,5.2,5.67l1.39-1.25c.09-.08,.2-.12,.32-.13l2.32-.08,1.86-1.69c.17-.16,.42-.17,.62-.04l5,3.4c.1,.07,.17,.17,.2,.29,.09,.37,.52,2.25-.06,3.21-.06,.22,.23,1.25,.44,2.01,.54,1.94,1.21,4.36,.41,5.96-1.04,2.08-2.56,4.72-2.87,5.26l-.16,2.05c0,.13-.07,.25-.17,.34-.02,.02-2.29,2.01-2,3.88,.4,2.57,1.15,5.49,1.93,6.21,1.23,1.13,1.03,3.81,.84,4.74-.05,.24-.26,.4-.49,.4Z"/></g><g class="cls-4"><path class="cls-3" d="M136.44,230.28c-.22,0-.43-.15-.48-.38-.05-.21-1.32-5.11-1.61-7.28-.31-2.27,.23-6.26,.46-7.97,.25-1.86-.71-7.12-1.46-7.93-.87-.95-1.01-2.94-1.13-4.69-.03-.35-.05-.7-.08-1.01-.07-.82-1.01-1.85-1.76-2.68-.87-.96-1.5-1.65-1.31-2.33,.27-.97,3.6-4.91,4.27-5.69,.09-.11,.23-.17,.38-.17h4.96l.97-3.15c.08-.26,.36-.42,.62-.33,.26,.08,.41,.36,.33,.62l-1.08,3.5c-.06,.21-.26,.35-.48,.35h-5.1c-1.85,2.17-3.78,4.64-3.92,5.13,.01,.22,.66,.93,1.08,1.4,.9,.99,1.91,2.1,2.01,3.26,.03,.33,.05,.67,.08,1.04,.11,1.51,.24,3.39,.88,4.09,1.08,1.18,1.97,6.86,1.71,8.74-.23,1.67-.76,5.57-.46,7.7,.29,2.11,1.58,7.11,1.59,7.17,.07,.27-.09,.54-.36,.61-.04,.01-.08,.02-.12,.02Z"/></g><g class="cls-4"><path class="cls-3" d="M102.81,204.22s-.01,0-.02,0c-.28-.01-.49-.24-.48-.52,0-.09,.09-2.12,.64-3.2,.12-.24-.09-1.33-.25-2.12-.36-1.8-.8-4.04-.05-5.7,.08-.18,.26-.29,.46-.29h14.74c.69-.41,2.93-1.66,4.05-1.49,1.11,.17,2.92,.74,2.99,.77,.11,.05,1.91,1.03,2.87,1.43,.75,.31,2.58,.42,3.22,.43,.28,0,.5,.24,.49,.51,0,.27-.23,.49-.5,.49h-.01c-.26,0-2.53-.07-3.59-.51-1-.42-2.78-1.38-2.88-1.44h0s-1.75-.54-2.75-.7c-.63-.09-2.42,.78-3.5,1.43-.08,.05-.17,.07-.26,.07h-14.53c-.44,1.36-.07,3.25,.24,4.8,.25,1.28,.44,2.21,.16,2.76-.37,.74-.51,2.27-.53,2.8-.01,.27-.23,.48-.5,.48Z"/></g><g class="cls-4"><path class="cls-3" d="M131.33,231c-.14,0-.28-.06-.38-.18-.11-.13-2.74-3.26-3.36-4.55-.63-1.33-.66-2.44-.1-3.41,.27-.46-.35-2.49-.58-3.25-.07-.23-.13-.43-.17-.59-.3-1.09,.44-5.17,.67-6.01,.11-.39-.26-2.02-.53-3.2-.27-1.19-.53-2.32-.57-3.06-.06-1.16-.36-1.66-.73-2.28-.09-.16-.19-.32-.29-.5-.45-.82-.12-2.21,.22-3.68,.12-.52,.24-1.03,.31-1.48,.07-.44,0-.8-.23-1.11-.36-.49-1.09-.84-2.06-.99-1.33-.21-1.72-.89-1.83-1.27-.15-.52,.03-1.07,.45-1.43,.56-.48,2.2-2.2,2.21-2.21,.19-.2,.51-.21,.71-.02,.2,.19,.21,.51,.02,.71-.07,.07-1.69,1.77-2.29,2.29-.13,.11-.18,.26-.14,.4,.08,.26,.46,.47,1.02,.56,.87,.13,2.05,.48,2.71,1.39,.39,.53,.52,1.15,.41,1.85-.07,.47-.2,1-.32,1.55-.26,1.11-.58,2.49-.31,2.97,.09,.17,.18,.32,.27,.47,.41,.69,.8,1.34,.87,2.74,.03,.65,.29,1.79,.54,2.89,.43,1.9,.68,3.09,.52,3.69-.28,1.02-.87,4.74-.67,5.49,.04,.15,.1,.34,.17,.56,.51,1.69,.93,3.27,.48,4.04-.26,.46-.49,1.15,.14,2.48,.56,1.18,3.19,4.3,3.22,4.34,.18,.21,.15,.53-.06,.7-.09,.08-.21,.12-.32,.12Z"/></g><g class="cls-4"><path class="cls-3" d="M128.71,163.73c-.66,0-1.09,0-1.16,0-.28,0-.5-.23-.49-.51s.24-.51,.51-.49c.07,0,6.88,.08,8.96-.4,2.21-.51,7.82-1.01,8.78-1.01h2.01l.5-2.51c.03-.14,.11-.26,.23-.33,.12-.07,.27-.09,.4-.05,.03,0,2.64,.78,3.51-.69,1.08-1.83,3.45-8.62,3.52-9.38,.07-.73,.02-10.73,0-14.53,0-.28,.22-.5,.5-.5h0c.27,0,.5,.22,.5,.5,0,.56,.08,13.69,0,14.62-.09,1.01-2.55,7.92-3.65,9.79-.98,1.65-3.12,1.46-4.12,1.27l-.48,2.41c-.05,.23-.25,.4-.49,.4h-2.42c-.9,0-6.45,.5-8.55,.99-1.67,.39-5.96,.44-8.04,.44Z"/></g></svg>