<?xml version="1.0" encoding="UTF-8"?><svg id="Calque_1" xmlns="http://www.w3.org/2000/svg" viewBox="0 0 231.62 78.06"><defs><style>.cls-1{fill:#487e52;}</style></defs><g><path class="cls-1" d="M76.7,35.48V9.78h2.99v25.7h-2.99Z"/><path class="cls-1" d="M96.56,15.86c.86,0,1.62,.07,2.3,.21l-.4,2.71c-.8-.18-1.5-.26-2.11-.26-1.56,0-2.89,.63-4,1.9s-1.66,2.84-1.66,4.73v10.34h-2.92V16.21h2.41l.33,3.57h.14c.71-1.25,1.58-2.22,2.58-2.9s2.12-1.02,3.32-1.02h0Z"/><path class="cls-1" d="M120.57,25.83c0,3.14-.79,5.59-2.37,7.36-1.58,1.77-3.77,2.65-6.56,2.65-1.72,0-3.25-.4-4.59-1.21s-2.37-1.97-3.09-3.48-1.09-3.28-1.09-5.31c0-3.14,.79-5.59,2.36-7.34s3.75-2.63,6.54-2.63,4.84,.9,6.42,2.69,2.38,4.22,2.38,7.28h0Zm-14.68-.01c0,2.46,.49,4.34,1.48,5.62,.99,1.28,2.43,1.93,4.34,1.93s3.36-.64,4.35-1.92,1.49-3.16,1.49-5.63-.5-4.31-1.49-5.58-2.45-1.91-4.39-1.91-3.35,.63-4.32,1.88-1.46,3.12-1.46,5.61Z"/><path class="cls-1" d="M130.05,25.62c.5-.71,1.27-1.65,2.3-2.81l6.22-6.59h3.46l-7.8,8.21,8.35,11.06h-3.53l-6.8-9.11-2.2,1.9v7.21h-2.88V8.13h2.88v14.5c0,.64-.05,1.64-.14,2.99h.14Z"/><path class="cls-1" d="M164.17,25.83c0,3.14-.79,5.59-2.37,7.36-1.58,1.77-3.77,2.65-6.56,2.65-1.72,0-3.25-.4-4.59-1.21s-2.37-1.97-3.09-3.48-1.09-3.28-1.09-5.31c0-3.14,.79-5.59,2.36-7.34s3.75-2.63,6.54-2.63,4.84,.9,6.42,2.69,2.38,4.22,2.38,7.28h0Zm-14.68-.01c0,2.46,.49,4.34,1.48,5.62,.99,1.28,2.43,1.93,4.34,1.93s3.36-.64,4.35-1.92,1.49-3.16,1.49-5.63-.5-4.31-1.49-5.58-2.45-1.91-4.38-1.91-3.35,.63-4.32,1.88-1.46,3.12-1.46,5.61h0Z"/></g><g><path class="cls-1" d="M92.85,68.33l-3.2-8.17h-10.3l-3.16,8.17h-3.02l10.16-25.8h2.51l10.11,25.8h-3.1Zm-4.13-10.86l-2.99-7.96c-.39-1.01-.79-2.24-1.2-3.71-.26,1.12-.63,2.36-1.11,3.71l-3.02,7.96h8.32Z"/><path class="cls-1" d="M113.7,68.33v-12.46c0-1.57-.36-2.74-1.07-3.52s-1.83-1.16-3.36-1.16c-2.02,0-3.49,.54-4.43,1.63s-1.41,2.89-1.41,5.4v10.11h-2.92v-19.27h2.37l.47,2.64h.14c.6-.95,1.44-1.68,2.51-2.21s2.28-.78,3.6-.78c2.32,0,4.07,.56,5.24,1.68s1.76,2.91,1.76,5.37v12.57h-2.9Z"/><path class="cls-1" d="M135.94,68.33l-.58-2.74h-.14c-.96,1.21-1.92,2.02-2.87,2.45s-2.15,.64-3.58,.64c-1.91,0-3.41-.49-4.49-1.48s-1.63-2.38-1.63-4.2c0-3.89,3.11-5.93,9.33-6.12l3.27-.11v-1.2c0-1.51-.33-2.63-.98-3.35s-1.69-1.08-3.12-1.08c-1.61,0-3.42,.49-5.45,1.48l-.9-2.23c.95-.52,1.99-.92,3.12-1.21s2.26-.44,3.4-.44c2.3,0,4,.51,5.11,1.53s1.66,2.65,1.66,4.9v13.15h-2.15Zm-6.59-2.05c1.82,0,3.24-.5,4.28-1.49s1.56-2.39,1.56-4.18v-1.74l-2.92,.12c-2.32,.08-3.99,.44-5.02,1.08s-1.54,1.63-1.54,2.98c0,1.05,.32,1.86,.96,2.41s1.53,.83,2.68,.83h0Z"/><path class="cls-1" d="M148.5,68.33h-2.92v-27.35h2.92v27.35Z"/><path class="cls-1" d="M153.11,49.06h3.13l4.22,10.99c.93,2.51,1.5,4.32,1.72,5.43h.14c.15-.6,.47-1.62,.96-3.07s2.08-5.9,4.77-13.35h3.13l-8.28,21.94c-.82,2.17-1.78,3.71-2.88,4.61s-2.44,1.36-4.03,1.36c-.89,0-1.77-.1-2.64-.3v-2.34c.64,.14,1.37,.21,2.16,.21,2,0,3.43-1.12,4.29-3.38l1.07-2.74-7.77-19.37h0Z"/><path class="cls-1" d="M182.01,66.27c.52,0,1.01-.04,1.49-.11s.86-.16,1.14-.24v2.23c-.32,.15-.78,.28-1.4,.38s-1.17,.15-1.66,.15c-3.73,0-5.59-1.96-5.59-5.89v-11.46h-2.76v-1.41l2.76-1.21,1.23-4.11h1.69v4.46h5.59v2.27h-5.59v11.34c0,1.16,.28,2.05,.83,2.67s1.31,.93,2.27,.93h0Z"/><path class="cls-1" d="M189.72,43.84c0-.67,.16-1.16,.49-1.47s.74-.47,1.23-.47,.87,.16,1.21,.47,.51,.8,.51,1.46-.17,1.15-.51,1.47-.74,.48-1.21,.48-.9-.16-1.23-.48-.49-.81-.49-1.47h0Zm3.16,24.5h-2.92v-19.27h2.92v19.27Z"/><path class="cls-1" d="M208.25,68.68c-2.79,0-4.95-.86-6.48-2.58s-2.29-4.15-2.29-7.29,.78-5.71,2.33-7.47,3.76-2.64,6.64-2.64c.93,0,1.85,.1,2.78,.3s1.65,.43,2.18,.7l-.9,2.48c-.64-.26-1.35-.47-2.11-.64s-1.44-.25-2.02-.25c-3.91,0-5.87,2.5-5.87,7.49,0,2.37,.48,4.18,1.43,5.45s2.37,1.9,4.25,1.9c1.61,0,3.25-.35,4.94-1.04v2.58c-1.29,.67-2.91,1-4.87,1h-.01Z"/><path class="cls-1" d="M231.59,63.07c0,1.79-.67,3.18-2,4.15s-3.21,1.46-5.62,1.46c-2.55,0-4.55-.4-5.98-1.21v-2.71c.93,.47,1.92,.84,2.98,1.11s2.08,.4,3.07,.4c1.52,0,2.7-.24,3.52-.73s1.23-1.23,1.23-2.22c0-.75-.33-1.39-.98-1.92s-1.92-1.16-3.8-1.89c-1.79-.67-3.07-1.25-3.82-1.75s-1.32-1.06-1.69-1.7-.55-1.39-.55-2.27c0-1.57,.64-2.81,1.92-3.72s3.03-1.36,5.26-1.36c2.07,0,4.1,.42,6.08,1.27l-1.04,2.37c-1.93-.8-3.69-1.2-5.26-1.2-1.38,0-2.43,.22-3.13,.65s-1.05,1.03-1.05,1.79c0,.52,.13,.96,.39,1.32s.69,.71,1.28,1.04,1.71,.8,3.38,1.42c2.29,.83,3.83,1.67,4.63,2.51s1.21,1.9,1.21,3.18h-.03Z"/></g><g id="tree"><path id="Path" class="cls-1" d="M23.05,36.93c1.05,.78,2.62,3.62,4.19,3.62,1.05-.26-1.31-8.53-6.02-9.04-6.02-.52-11-2.58-14.14-8.27-1.57-2.84,1.83,1.55,2.1,1.81,6.02,6.72,12.59-.21,15.99,4.96,0-.26-.02-7.8-2.37-10.13-3.4-3.36-8.64-3.36-9.17-3.88-1.83-1.29,7.59,.78,10.21,3.36,4.19,3.88,4.04,9.24,4.83,6.14,1.31-5.94,4.6-9.5,2.24-13.38-2.36-4.65,1.31-.52,1.83,1.55,1.05,5.43-4.71,17.57-2.36,22.22,1.57-1.29,3.4-5.17,9.17-5.43,3.93,0,8.38,1.03,9.95-2.58,.26-1.29,0-1.81,0-2.84,.26-3.1,5.5,7.49-8.64,7.49-2.62,0-5.41,1.88-6.2,4.47-1.83,4.39-.5,5.17-.5,7.5-.5,7.5,3.55-4.73,2.24,.18-1.05,3.1-1.24,7.46-1.24,10.82,.52,8.01-4.62,7.64,3.5,11,2.1,1.03,7.43,6.34,4.81,5.05-12.83-7.23-6.81,1.81-7.59,2.33-.52,.52-2.1-2.33-2.36-2.58-.26-.26-2.08-9.37-2.86-6.79-.79,2.07-1.59,3.17-2.64,4.98-1.83,2.58-1.13,5.18-.86,8.02,0,2.07-1.23-2.34-1.49-3.11-.26-.78-.52-3.36-1.83-2.33-2.36,1.03-3.94,6.49-3.67,4.94,.26-5.17,5.77-7.78,6.55-11.4-2.36,.78-8.9,4.39-11,6.46-1.57,1.55-3.14,5.17-2.36,1.81,.79-3.1,6.21-5.37,2.8-5.37-2.1,.26-5.94,1.24-7.78,2.01-2.1,.78-1.31-.26,1.57-1.55,3.67-1.55,4.68,.19,10.71-4.46,4.98-4.13,6.5-12.3,6.5-18.5,0-3.88-2.02-4.16-3.85-7.01-.52-.78-3.67-4.13-.26-2.07Z"/><path id="Path-2" class="cls-1" d="M16,40.53c1.59-2.89,4.76-3.31,6.67-1.24-1.59,2.89-4.76,3.72-6.67,1.24Z"/><path id="Path-3" class="cls-1" d="M20,44.91c.29-2.11,2.65-3.27,5-2.81-.29,1.87-2.65,3.27-5,2.81Z"/><path id="Path-4" class="cls-1" d="M15,33.48c2.81-1.35,5.96,.34,6.67,3.05-2.81,1.35-5.96-.34-6.67-3.05Z"/><path id="Path-5" class="cls-1" d="M0,24.95c1.9-2.85,5.08-2.45,6.67,.41-1.9,2.45-5.08,2.04-6.67-.41Z"/><path id="Path-6" class="cls-1" d="M1.67,17.13c2.65-.73,5,1.83,5,4.75-2.35,.73-4.71-1.83-5-4.75Z"/><path id="Path-7" class="cls-1" d="M9.01,17c2.22,1.71,2.22,4.57,0,6-2.58-1.43-2.58-4.29,0-6h0Z"/><path id="Path-8" class="cls-1" d="M1.67,29.87c1.82-3.25,5.45-3.66,8-1.63-1.82,2.85-5.45,3.66-8,1.63Z"/><path id="Path-9" class="cls-1" d="M13.14,21c1.17,1.9,.29,4.05-1.76,5-1.47-1.9-.59-4.05,1.76-5h0Z"/><path id="Path-10" class="cls-1" d="M34.18,0c-3.29,1.52-4.7,5.33-2.35,8,3.76-1.52,4.7-5.33,2.35-8Z"/><path id="Path-11" class="cls-1" d="M26.26,1c-1.51,2.8,0,5.95,3.02,7,1.51-2.8,0-5.95-3.02-7Z"/><path id="Path-12" class="cls-1" d="M22,7.9c1,2.94,4.33,4.04,6.67,2.2-1-2.94-4.33-4.04-6.67-2.2h0Z"/><path id="Path-13" class="cls-1" d="M37.4,5c-3.79,.95-5.68,5.21-4.26,9,3.79-.95,6.16-5.21,4.26-9Z"/><path id="Path-14" class="cls-1" d="M24,13.92c1.59,2.98,5.08,2.56,6.67,0-1.9-2.56-5.08-2.56-6.67,0Z"/><path id="Path-15" class="cls-1" d="M11.77,7c-2.25,3.05-.9,6.48,2.7,8,2.25-3.05,.45-6.48-2.7-8Z"/><path id="Path-16" class="cls-1" d="M5.67,10.17c.35,3.92,3.18,6.54,6,5.66-.35-3.92-3.18-6.54-6-5.66h0Z"/><path id="Path-17" class="cls-1" d="M10.67,19.27c1.67,1.47,4.05,.59,5-1.47-1.9-1.47-4.05-.88-5,1.47Z"/><path id="Path-18" class="cls-1" d="M17.02,8c-2.16,2.55-1.73,6.18,1.3,8,2.16-2.55,1.73-6.18-1.3-8Z"/><path id="Path-19" class="cls-1" d="M56.62,18c-3.38,.35-6.34,2.82-5.91,6,3.8,0,6.34-2.82,5.91-6h0Z"/><path id="Path-20" class="cls-1" d="M49.98,15c-3.01,1.67-3.01,5-.43,7,3.01-1.67,3.01-5,.43-7Z"/><path id="Path-21" class="cls-1" d="M43.67,19.03c0,2.96,2.32,5.27,4.97,4.94,.33-2.96-2.32-5.27-4.97-4.94h0Z"/><path id="Path-22" class="cls-1" d="M56.67,23.13c-2.65-.73-5,1.83-5,4.75,2.35,.73,4.71-1.83,5-4.75Z"/><path id="Path-23" class="cls-1" d="M42,24.35c.67,2.81,4,4.56,6.67,3.16-1-2.81-4-4.21-6.67-3.16Z"/><path id="Path-24" class="cls-1" d="M39.67,12.04c0,3.58-2.78,5.96-5.97,5.96-.4-3.58,2.78-6.36,5.97-5.96Z"/><path id="Path-25" class="cls-1" d="M39.33,19.07c-1.27,2.74-4.44,3.92-6.67,1.96,1.27-3.13,4.44-3.92,6.67-1.96Z"/><path id="Path-26" class="cls-1" d="M57.33,29.6c-1.9-2.43-5.08-2.02-6.67,.81,1.9,2.43,5.08,2.02,6.67-.81Z"/><path id="Path-27" class="cls-1" d="M56.33,35.46c-.7-2.77-3.86-4.16-6.67-3.12,.7,3.12,3.86,4.5,6.67,3.12Z"/><path id="Path-28" class="cls-1" d="M5,33.72c.7-2.91,3.86-4.2,6.67-3.55-.7,2.91-3.86,4.52-6.67,3.55Z"/><path id="Path-29" class="cls-1" d="M24.67,17.03c0,2.96,2.19,5.27,5,4.94,0-2.96-2.5-5.27-5-4.94Z"/><path id="Path-30" class="cls-1" d="M17.67,23.03c0,2.65-2.19,4.97-5,4.97,0-2.98,2.19-5.3,5-4.97h0Z"/><path id="Path-31" class="cls-1" d="M14.67,20.9c2.22,.47,4.72-.7,5-2.81-2.22-.47-4.72,.94-5,2.81Z"/><path id="Path-32" class="cls-1" d="M20.89,11c-1.91,1.91-1.53,5.41,.77,7,2.3-2.23,1.91-5.41-.77-7Z"/><path id="Path-33" class="cls-1" d="M37.33,23.97c-1.27,3.13-4.44,3.92-6.67,1.96,1.27-2.74,4.44-3.92,6.67-1.96Z"/><path id="Path-34" class="cls-1" d="M40.77,23c-2.48,1.91-2.83,5.09-.71,7,2.48-1.91,2.83-5.09,.71-7Z"/><path id="Path-35" class="cls-1" d="M45.67,37.86c0-3.27-2.65-5.45-5-4.72,.29,3.27,2.65,5.45,5,4.72Z"/><path id="Path-36" class="cls-1" d="M51.67,38.95c0-3.8-3-6.33-6-5.91,0,3.8,3,6.33,6,5.91Z"/><path id="Path-37" class="cls-1" d="M36.95,35c-2.97,2.18-2.97,5.82-.42,8,2.55-1.82,2.97-5.82,.42-8Z"/><path id="Path-38" class="cls-1" d="M44.67,45.6c-2.55-2.43-6.18-2.02-8,.81,2.55,2.43,6.18,2.02,8-.81Z"/><path id="Path-39" class="cls-1" d="M42.54,39c-2.92,0-5.48,2.5-4.75,5,2.92,0,5.48-2.5,4.75-5Z"/><path id="Path-40" class="cls-1" d="M40.67,52.96c0-3.17-2.5-5.28-5-4.92,0,3.17,2.5,5.28,5,4.92Z"/><path id="Path-41" class="cls-1" d="M11.56,37c2.53-1.14,3.61-4,1.81-6-2.53,1.14-3.61,4-1.81,6Z"/></g></svg>